<?xml version="1.0" encoding="UTF-8" standalone="no"?>
<svg
   xmlns:dc="http://purl.org/dc/elements/1.1/"
   xmlns:cc="http://creativecommons.org/ns#"
   xmlns:rdf="http://www.w3.org/1999/02/22-rdf-syntax-ns#"
   xmlns:svg="http://www.w3.org/2000/svg"
   xmlns="http://www.w3.org/2000/svg"
   xmlns:sodipodi="http://sodipodi.sourceforge.net/DTD/sodipodi-0.dtd"
   xmlns:inkscape="http://www.inkscape.org/namespaces/inkscape"
   height="24px"
   id="Layer_1"
   version="1.2"
   viewBox="0 0 24 24"
   width="24px"
   xml:space="preserve"
   inkscape:version="0.91 r13725"
   sodipodi:docname="arrow-left.svg"><metadata
     id="metadata3365"><rdf:RDF><cc:Work
         rdf:about=""><dc:format>image/svg+xml</dc:format><dc:type
           rdf:resource="http://purl.org/dc/dcmitype/StillImage" /></cc:Work></rdf:RDF></metadata><defs
     id="defs3363" /><sodipodi:namedview
     pagecolor="#ffffff"
     bordercolor="#666666"
     borderopacity="1"
     objecttolerance="10"
     gridtolerance="10"
     guidetolerance="10"
     inkscape:pageopacity="0"
     inkscape:pageshadow="2"
     inkscape:window-width="1920"
     inkscape:window-height="1017"
     id="namedview3361"
     showgrid="false"
     inkscape:zoom="9.8333333"
     inkscape:cx="12"
     inkscape:cy="12"
     inkscape:window-x="-8"
     inkscape:window-y="-8"
     inkscape:window-maximized="1"
     inkscape:current-layer="Layer_1" /><path
     d="m 18.711864,9.779661 -7.244,0 1.586,-1.586 c 0.781,-0.781 0.781,-2.049 0,-2.828 -0.781,-0.781 -2.047,-0.781 -2.828,0 l -6.4139996,6.414 6.4139996,6.414 c 0.39,0.391 0.902,0.586 1.414,0.586 0.512,0 1.023,-0.195 1.414,-0.586 0.781,-0.781 0.781,-2.049 0,-2.828 l -1.586,-1.586 7.244,0 c 1.104,0 2,-0.896 2,-2 0,-1.105 -0.896,-2 -2,-2 z"
     id="path3359"
     style="fill:#f2f2f2"
     inkscape:connector-curvature="0" /><path
     style="fill:none"
     d="M 10.525424,19.89851 C 10.357627,19.858161 10.105932,19.765578 9.9661017,19.69277 9.8262712,19.619962 8.2353516,18.091331 6.4307247,16.295812 L 3.1495851,13.031233 6.4307247,9.739073 C 8.5696721,7.5929418 9.8534679,6.3805239 10.118644,6.2561985 c 1.654117,-0.775517 3.372867,1.0226162 2.535184,2.6522761 -0.07188,0.1398305 -0.522968,0.64221 -1.002426,1.1163984 -0.479457,0.474189 -0.871741,0.897494 -0.871741,0.940678 0,0.04318 1.706405,0.07852 3.792011,0.07852 3.731962,0 3.799104,0.0036 4.239868,0.228813 0.246321,0.125848 0.587797,0.404672 0.758836,0.619609 0.277328,0.348507 0.31098,0.464859 0.31098,1.075224 0,0.576471 -0.04413,0.751112 -0.279775,1.107195 -0.153876,0.232522 -0.46095,0.515197 -0.682389,0.628167 -0.38304,0.195413 -0.590691,0.205399 -4.271073,0.205399 -2.127652,0 -3.868458,0.03547 -3.868458,0.07882 0,0.04335 0.346546,0.420891 0.770103,0.838983 1.163554,1.148543 1.485426,1.818451 1.265727,2.634348 -0.124602,0.462738 -0.602728,1.064792 -1.008553,1.269964 -0.362942,0.183493 -0.915606,0.255911 -1.281514,0.167924 z"
     id="path3367"
     inkscape:connector-curvature="0" /></svg>