<?xml version="1.0" encoding="UTF-8" standalone="no"?>
<svg
   xmlns:dc="http://purl.org/dc/elements/1.1/"
   xmlns:cc="http://creativecommons.org/ns#"
   xmlns:rdf="http://www.w3.org/1999/02/22-rdf-syntax-ns#"
   xmlns:svg="http://www.w3.org/2000/svg"
   xmlns="http://www.w3.org/2000/svg"
   xmlns:sodipodi="http://sodipodi.sourceforge.net/DTD/sodipodi-0.dtd"
   xmlns:inkscape="http://www.inkscape.org/namespaces/inkscape"
   height="24px"
   id="Layer_1"
   version="1.2"
   viewBox="0 0 24 24"
   width="24px"
   xml:space="preserve"
   inkscape:version="0.91 r13725"
   sodipodi:docname="arrow-right.svg"><metadata
     id="metadata3382"><rdf:RDF><cc:Work
         rdf:about=""><dc:format>image/svg+xml</dc:format><dc:type
           rdf:resource="http://purl.org/dc/dcmitype/StillImage" /></cc:Work></rdf:RDF></metadata><defs
     id="defs3380" /><sodipodi:namedview
     pagecolor="#ffffff"
     bordercolor="#666666"
     borderopacity="1"
     objecttolerance="10"
     gridtolerance="10"
     guidetolerance="10"
     inkscape:pageopacity="0"
     inkscape:pageshadow="2"
     inkscape:window-width="1920"
     inkscape:window-height="1017"
     id="namedview3378"
     showgrid="false"
     inkscape:zoom="9.8333333"
     inkscape:cx="12"
     inkscape:cy="12"
     inkscape:window-x="-8"
     inkscape:window-y="-8"
     inkscape:window-maximized="1"
     inkscape:current-layer="Layer_1" /><path
     d="m 11.399559,5.6707458 c -0.781,0.779 -0.781,2.047 0,2.828 l 1.586,1.5860002 -7.2439997,0 c -1.104,0 -2,0.895 -2,2 0,1.104 0.896,2 2,2 l 7.2439997,0 -1.586,1.586 c -0.781,0.779 -0.781,2.047 0,2.828 0.391,0.391 0.902,0.586 1.414,0.586 0.512,0 1.023,-0.195 1.414,-0.586 l 6.414,-6.414 -6.414,-6.4140002 c -0.781,-0.781 -2.047,-0.781 -2.828,0 z"
     id="path3376"
     style="fill:#f2f2f2"
     inkscape:connector-curvature="0" /><path
     style="fill:none"
     d="m 11.491525,19.876894 c -1.149878,-0.336962 -1.7602755,-1.683991 -1.22791,-2.709759 0.1077,-0.207518 0.588208,-0.765278 1.067796,-1.239466 0.479588,-0.474189 0.871979,-0.897494 0.871979,-0.940678 0,-0.04318 -1.740453,-0.07852 -3.8676733,-0.07852 -4.2781268,0 -4.284852,-8.94e-4 -4.8499754,-0.644534 -0.8580943,-0.977316 -0.5608918,-2.438577 0.611398,-3.006073 0.4249629,-0.205721 0.587048,-0.2138 4.2893118,-0.2138 l 3.8476599,0 -0.966758,-0.996291 C 10.205069,8.9530417 10.01434,8.5853327 10.09162,7.7810631 c 0.05509,-0.573283 0.361819,-1.0726252 0.874809,-1.4241319 0.289861,-0.1986158 0.486004,-0.2450668 1.034815,-0.2450668 0.572128,0 0.73891,0.043 1.075248,0.2772221 0.218946,0.1524722 1.816458,1.6969701 3.550026,3.4322176 l 3.151941,3.1549959 -3.304274,3.305448 c -1.817351,1.817996 -3.441658,3.370132 -3.609569,3.44919 -0.444807,0.209428 -0.967053,0.264942 -1.373091,0.145956 z"
     id="path3384"
     inkscape:connector-curvature="0" /><path
     style="fill:none;fill-opacity:1"
     d="m 11.291161,19.730495 c -0.719631,-0.312136 -1.143413,-0.976135 -1.137172,-1.781774 0.005,-0.642309 0.08646,-0.776483 1.148931,-1.89176 0.495258,-0.519875 0.90047,-0.983809 0.90047,-1.030966 0,-0.04716 -1.742404,-0.118205 -3.8720095,-0.157885 C 6.1570164,14.827596 4.3400898,14.750778 4.1873127,14.692903 3.5866163,14.465347 3.0508474,13.680408 3.0508474,13.027904 c 0,-0.409782 0.2264534,-1.016456 0.4869293,-1.304495 0.095748,-0.10588 0.3514193,-0.283014 0.5681579,-0.393631 0.3657312,-0.186658 0.675244,-0.205308 4.3039567,-0.259331 L 12.319778,11.012239 11.507949,10.18917 C 10.369095,9.0345502 10.16937,8.7084182 10.170012,8.0044529 10.170599,7.3619354 10.421571,6.8472865 10.926939,6.4522772 11.153933,6.2748529 11.3886,6.2092587 11.893041,6.182232 c 0.604153,-0.032369 0.708953,-0.00691 1.123908,0.272993 0.251695,0.1697799 1.85339,1.7080949 3.559322,3.4184778 l 3.101695,3.1097872 -3.320893,3.302647 c -2.111769,2.100166 -3.452798,3.35776 -3.683174,3.454018 -0.455669,0.190391 -0.929142,0.187083 -1.382738,-0.0097 l 0,1e-6 z"
     id="path3334"
     inkscape:connector-curvature="0" /></svg>