<?xml version="1.0" encoding="UTF-8" standalone="no"?>
<svg
   xmlns:dc="http://purl.org/dc/elements/1.1/"
   xmlns:cc="http://creativecommons.org/ns#"
   xmlns:rdf="http://www.w3.org/1999/02/22-rdf-syntax-ns#"
   xmlns:svg="http://www.w3.org/2000/svg"
   xmlns="http://www.w3.org/2000/svg"
   xmlns:sodipodi="http://sodipodi.sourceforge.net/DTD/sodipodi-0.dtd"
   xmlns:inkscape="http://www.inkscape.org/namespaces/inkscape"
   height="24px"
   id="Layer_1"
   version="1.2"
   viewBox="0 0 24 24"
   width="24px"
   xml:space="preserve"
   inkscape:version="0.91 r13725"
   sodipodi:docname="arrow-down.svg"><metadata
     id="metadata3354"><rdf:RDF><cc:Work
         rdf:about=""><dc:format>image/svg+xml</dc:format><dc:type
           rdf:resource="http://purl.org/dc/dcmitype/StillImage" /></cc:Work></rdf:RDF></metadata><defs
     id="defs3352" /><sodipodi:namedview
     pagecolor="#ffffff"
     bordercolor="#666666"
     borderopacity="1"
     objecttolerance="10"
     gridtolerance="10"
     guidetolerance="10"
     inkscape:pageopacity="0"
     inkscape:pageshadow="2"
     inkscape:window-width="1920"
     inkscape:window-height="1017"
     id="namedview3350"
     showgrid="false"
     inkscape:zoom="9.8333333"
     inkscape:cx="12"
     inkscape:cy="7.9322034"
     inkscape:window-x="-8"
     inkscape:window-y="-8"
     inkscape:window-maximized="1"
     inkscape:current-layer="Layer_1" /><path
     d="M18.414,10.656c-0.781-0.781-2.047-0.781-2.828,0L14,12.242V5c0-1.105-0.896-2-2-2c-1.105,0-2,0.895-2,2v7.242l-1.586-1.586  c-0.781-0.781-2.047-0.781-2.828,0s-0.781,2.047,0,2.828L12,19.898l6.414-6.414C19.195,12.703,19.195,11.438,18.414,10.656z"
     id="path3348"
     style="fill:#f2f2f2" /><path
     style="fill:none"
     d="M 8.6787735,16.510169 C 6.8807105,14.706356 5.336483,13.084053 5.2471569,12.90505 5.1578308,12.726048 5.0847458,12.334584 5.0847458,12.03513 c 0,-1.390657 1.5117898,-2.3398283 2.7243903,-1.710498 0.2075175,0.1077 0.7652773,0.588208 1.2394661,1.067796 0.4741889,0.479588 0.897494,0.871979 0.940678,0.871979 0.043184,0 0.078517,-1.740806 0.078517,-3.8684583 0,-3.6617901 0.01081,-3.8896587 0.202451,-4.2652951 0.249172,-0.4884172 0.726916,-0.8615169 1.297549,-1.0133349 0.831226,-0.2211496 1.806861,0.2512052 2.169852,1.0505368 0.174764,0.3848416 0.190268,0.7280593 0.192321,4.2575682 0.0012,2.1114403 0.03757,3.8389833 0.08075,3.8389833 0.04318,0 0.466489,-0.392391 0.940678,-0.871979 0.474188,-0.479588 1.031948,-0.960096 1.239466,-1.067796 1.212601,-0.6293303 2.72439,0.319841 2.72439,1.710498 0,0.299454 -0.07309,0.690918 -0.162411,0.86992 -0.141675,0.283904 -6.616054,6.884781 -6.752843,6.884781 -0.02861,0 -1.523163,-1.475848 -3.3212265,-3.279662 z"
     id="path3356"
     inkscape:connector-curvature="0" /></svg>