<?xml version="1.0" encoding="UTF-8" standalone="no"?>
<svg
   xmlns:dc="http://purl.org/dc/elements/1.1/"
   xmlns:cc="http://creativecommons.org/ns#"
   xmlns:rdf="http://www.w3.org/1999/02/22-rdf-syntax-ns#"
   xmlns:svg="http://www.w3.org/2000/svg"
   xmlns="http://www.w3.org/2000/svg"
   xmlns:sodipodi="http://sodipodi.sourceforge.net/DTD/sodipodi-0.dtd"
   xmlns:inkscape="http://www.inkscape.org/namespaces/inkscape"
   height="24px"
   id="Layer_1"
   version="1.2"
   viewBox="0 0 24 24"
   width="24px"
   xml:space="preserve"
   inkscape:version="0.91 r13725"
   sodipodi:docname="arrow-up.svg"><metadata
     id="metadata3343"><rdf:RDF><cc:Work
         rdf:about=""><dc:format>image/svg+xml</dc:format><dc:type
           rdf:resource="http://purl.org/dc/dcmitype/StillImage" /></cc:Work></rdf:RDF></metadata><defs
     id="defs3341" /><sodipodi:namedview
     pagecolor="#ffffff"
     bordercolor="#666666"
     borderopacity="1"
     objecttolerance="10"
     gridtolerance="10"
     guidetolerance="10"
     inkscape:pageopacity="0"
     inkscape:pageshadow="2"
     inkscape:window-width="1920"
     inkscape:window-height="1017"
     id="namedview3339"
     showgrid="false"
     inkscape:zoom="35.333333"
     inkscape:cx="12"
     inkscape:cy="12"
     inkscape:window-x="-8"
     inkscape:window-y="-8"
     inkscape:window-maximized="1"
     inkscape:current-layer="Layer_1" /><path
     d="M 12.056604,3.172 5.6426038,9.586 c -0.781,0.781 -0.781,2.047 0,2.828 0.781,0.781 2.047,0.781 2.828,0 l 1.5860002,-1.586 0,7.242 c 0,1.104 0.895,2 2,2 1.104,0 2,-0.896 2,-2 l 0,-7.242 1.586,1.586 c 0.391,0.391 0.902,0.586 1.414,0.586 0.512,0 1.023,-0.195 1.414,-0.586 0.781,-0.781 0.781,-2.047 0,-2.828 l -6.414,-6.414 z"
     id="path3337"
     style="fill:#f2f2f2"
     inkscape:connector-curvature="0" /><path
     style="fill:none"
     d="m 11.589623,20.01503 c -0.753472,-0.172551 -1.325519,-0.728702 -1.513986,-1.471916 -0.05541,-0.218509 -0.05677,-0.313505 -0.05677,-3.969339 0,-2.06001 -0.009,-3.745473 -0.01989,-3.745473 -0.010939,0 -0.4280386,0.40567 -0.9268868,0.90149 C 8.1835992,12.612889 8.1597892,12.633918 7.9050648,12.760488 7.554284,12.934788 7.2949111,12.990069 6.909723,12.972629 6.0524868,12.933818 5.3516913,12.380348 5.0904907,11.535849 5.037933,11.365923 5.0248381,11.258667 5.0248381,10.998113 5.0248381,10.62724 5.0823588,10.39263 5.257292,10.05 5.3509305,9.8665967 5.6050096,9.6049695 8.6792205,6.5264151 L 12,3.2009434 15.32078,6.5264151 c 3.07421,3.0785544 3.32829,3.3401816 3.421928,3.5235849 0.174933,0.34263 0.232454,0.57724 0.232454,0.948113 0,0.371597 -0.05791,0.607154 -0.233094,0.948113 -0.146931,0.285972 -0.540531,0.672759 -0.828616,0.814273 -0.605738,0.297552 -1.251142,0.293365 -1.846095,-0.01197 -0.216275,-0.110996 -0.295569,-0.181961 -1.139448,-1.01976 -0.498848,-0.495254 -0.915947,-0.900462 -0.926887,-0.900462 -0.01094,0 -0.01989,1.685463 -0.01989,3.745473 0,3.631984 -0.0017,3.752068 -0.05567,3.963156 -0.06782,0.265178 -0.13555,0.422157 -0.26867,0.62271 -0.237549,0.357884 -0.63006,0.658527 -1.036943,0.794247 -0.28946,0.09655 -0.754963,0.124179 -1.030222,0.06114 z"
     id="path3345"
     inkscape:connector-curvature="0" /></svg>