<?xml version="1.0" encoding="UTF-8" standalone="no"?>
<svg
   xmlns:dc="http://purl.org/dc/elements/1.1/"
   xmlns:cc="http://creativecommons.org/ns#"
   xmlns:rdf="http://www.w3.org/1999/02/22-rdf-syntax-ns#"
   xmlns:svg="http://www.w3.org/2000/svg"
   xmlns="http://www.w3.org/2000/svg"
   xmlns:sodipodi="http://sodipodi.sourceforge.net/DTD/sodipodi-0.dtd"
   xmlns:inkscape="http://www.inkscape.org/namespaces/inkscape"
   enable-background="new 0 0 24 24"
   height="24px"
   id="Layer_1"
   version="1.1"
   viewBox="0 0 24 24"
   width="24px"
   xml:space="preserve"
   inkscape:version="0.91 r13725"
   sodipodi:docname="cash.svg"><metadata
     id="metadata11"><rdf:RDF><cc:Work
         rdf:about=""><dc:format>image/svg+xml</dc:format><dc:type
           rdf:resource="http://purl.org/dc/dcmitype/StillImage" /><dc:title></dc:title></cc:Work></rdf:RDF></metadata><defs
     id="defs9" /><sodipodi:namedview
     pagecolor="#ffffff"
     bordercolor="#666666"
     borderopacity="1"
     objecttolerance="10"
     gridtolerance="10"
     guidetolerance="10"
     inkscape:pageopacity="0"
     inkscape:pageshadow="2"
     inkscape:window-width="1280"
     inkscape:window-height="737"
     id="namedview7"
     showgrid="false"
     inkscape:zoom="9.8333333"
     inkscape:cx="12"
     inkscape:cy="12"
     inkscape:window-x="-8"
     inkscape:window-y="-8"
     inkscape:window-maximized="1"
     inkscape:current-layer="Layer_1" /><g
     id="g3"
     style="fill:#f2f2f2"><path
       d="M18.557,15.559c0,2.617-1.823,4.852-5.203,5.41V24l-2.912-0.598v-2.199   c-1.973-0.087-3.882-0.646-4.998-1.266l0.879-3.439c1.235,0.675,2.971,1.297,4.884,1.297c1.706,0,2.851-0.676,2.851-1.822   c0-1.121-0.941-1.828-3.148-2.561c-3.145-1.062-5.29-2.527-5.29-5.385c0-2.615,1.819-4.643,4.966-5.232V0l2.885,0.699v1.89   c1.94,0.058,3.263,0.495,4.292,0.97l-0.882,3.32c-0.738-0.352-2.121-1.031-4.236-1.031c-1.909,0-2.528,0.856-2.528,1.681   c0,0.94,1.03,1.589,3.56,2.497C17.174,11.262,18.557,12.879,18.557,15.559z"
       id="path5"
       style="fill:#f2f2f2"
       fill="#030203" /></g></svg>