<?xml version="1.0" encoding="UTF-8" standalone="no"?>
<!-- Created with Inkscape (http://www.inkscape.org/) -->

<svg
   xmlns:dc="http://purl.org/dc/elements/1.1/"
   xmlns:cc="http://creativecommons.org/ns#"
   xmlns:rdf="http://www.w3.org/1999/02/22-rdf-syntax-ns#"
   xmlns:svg="http://www.w3.org/2000/svg"
   xmlns="http://www.w3.org/2000/svg"
   xmlns:sodipodi="http://sodipodi.sourceforge.net/DTD/sodipodi-0.dtd"
   xmlns:inkscape="http://www.inkscape.org/namespaces/inkscape"
   width="256"
   height="232"
   version="1.0"
   id="svg2"
   inkscape:version="0.91 r13725"
   sodipodi:docname="discount.svg">
  <metadata
     id="metadata10">
    <rdf:RDF>
      <cc:Work
         rdf:about="">
        <dc:format>image/svg+xml</dc:format>
        <dc:type
           rdf:resource="http://purl.org/dc/dcmitype/StillImage" />
      </cc:Work>
    </rdf:RDF>
  </metadata>
  <defs
     id="defs8" />
  <sodipodi:namedview
     pagecolor="#ffffff"
     bordercolor="#666666"
     borderopacity="1"
     objecttolerance="10"
     gridtolerance="10"
     guidetolerance="10"
     inkscape:pageopacity="0"
     inkscape:pageshadow="2"
     inkscape:window-width="1920"
     inkscape:window-height="1017"
     id="namedview6"
     showgrid="false"
     inkscape:zoom="1.0172414"
     inkscape:cx="128"
     inkscape:cy="116"
     inkscape:window-x="-8"
     inkscape:window-y="-8"
     inkscape:window-maximized="1"
     inkscape:current-layer="svg2" />
  <g
     id="layer1"
     transform="matrix(0.74271716,0,0,0.75269037,-50.033468,-68.914165)"
     style="fill:#f2f2f2">
    <path
       style="fill:#f2f2f2;fill-opacity:1;stroke:none"
       d="m 317.1674,257.53698 c -8.63277,10e-5 -15.42966,3.67141 -20.39069,11.01396 -4.86222,7.34271 -7.29322,17.56286 -7.29303,30.66046 -1.9e-4,12.89927 2.43081,23.0698 7.29303,30.51163 4.96103,7.34265 11.75792,11.01397 20.39069,11.01395 8.43388,2e-5 15.08194,-3.6713 19.94419,-11.01395 4.96099,-7.44183 7.44161,-17.61236 7.44186,-30.51163 -2.5e-4,-12.99838 -2.48087,-23.16891 -7.44186,-30.51163 -4.86225,-7.44176 -11.51031,-11.16269 -19.94419,-11.16279 m 0,-18.90232 c 15.67729,1.1e-4 28.12999,5.45747 37.35814,16.37209 9.22764,10.91482 13.84159,25.64969 13.84186,44.20465 -2.7e-4,18.55508 -4.66383,33.28995 -13.99069,44.20465 -9.22816,10.81551 -21.63125,16.22325 -37.20931,16.22326 -15.87617,-1e-5 -28.4281,-5.40775 -37.65581,-16.22326 -9.22808,-10.9147 -13.84203,-25.64957 -13.84186,-44.20465 -1.7e-4,-18.65419 4.61378,-33.38906 13.84186,-44.20465 9.32694,-10.91462 21.87886,-16.37198 37.65581,-16.37209 m -153.6,-90.64186 c -8.53339,2e-4 -15.28067,3.72113 -20.24186,11.16279 -4.86205,7.34282 -7.29306,17.46374 -7.29302,30.36279 -4e-5,13.09783 2.43097,23.31797 7.29302,30.66046 4.86197,7.34277 11.60925,11.01408 20.24186,11.01396 8.63249,1.2e-4 15.37977,-3.67119 20.24186,-11.01396 4.96115,-7.34249 7.44177,-17.56263 7.44187,-30.66046 -1e-4,-12.79982 -2.48072,-22.92074 -7.44187,-30.36279 -4.96132,-7.44166 -11.7086,-11.16259 -20.24186,-11.16279 m 134.4,-18.90233 23.81396,0 -139.01396,230.54884 -23.81395,0 139.01395,-230.54884 m -134.4,0 c 15.67744,2.3e-4 28.17975,5.45759 37.50698,16.37209 9.32702,10.81571 13.99058,25.50096 13.9907,44.05582 -1.2e-4,18.75363 -4.66368,33.53811 -13.9907,44.35349 -9.228,10.81561 -21.73032,16.22336 -37.50698,16.22325 -15.77679,1.1e-4 -28.27911,-5.40764 -37.50697,-16.22325 -9.12871,-10.9146 -13.69304,-25.69908 -13.69303,-44.35349 -1e-5,-18.45563 4.61394,-33.14089 13.84186,-44.05582 9.22787,-10.9145 21.68057,-16.37186 37.35814,-16.37209"
       id="text1869"
       inkscape:connector-curvature="0" />
  </g>
</svg>
