<?xml version="1.0" encoding="UTF-8" standalone="no"?>
<!-- Created with Inkscape (http://www.inkscape.org/) -->

<svg
   xmlns:dc="http://purl.org/dc/elements/1.1/"
   xmlns:cc="http://creativecommons.org/ns#"
   xmlns:rdf="http://www.w3.org/1999/02/22-rdf-syntax-ns#"
   xmlns:svg="http://www.w3.org/2000/svg"
   xmlns="http://www.w3.org/2000/svg"
   xmlns:sodipodi="http://sodipodi.sourceforge.net/DTD/sodipodi-0.dtd"
   xmlns:inkscape="http://www.inkscape.org/namespaces/inkscape"
   width="928.57147"
   height="181.6709"
   id="svg8935"
   version="1.1"
   inkscape:version="0.48.1 "
   sodipodi:docname="EuPlatesc v27.svg"
   inkscape:export-filename="C:\Users\Stefan\Documents\EuPlatesc 2011\Firma\Sigla 2011\euplatesc_65.png"
   inkscape:export-xdpi="32.178497"
   inkscape:export-ydpi="32.178497">
  <defs
     id="defs8937" />
  <sodipodi:namedview
     inkscape:document-units="mm"
     pagecolor="#ffffff"
     bordercolor="#666666"
     borderopacity="1.0"
     inkscape:pageopacity="0.0"
     inkscape:pageshadow="2"
     inkscape:zoom="0.61399264"
     inkscape:cx="230.82378"
     inkscape:cy="259.40612"
     inkscape:current-layer="layer1"
     id="namedview8939"
     showgrid="false"
     inkscape:window-width="1366"
     inkscape:window-height="716"
     inkscape:window-x="-8"
     inkscape:window-y="-8"
     inkscape:window-maximized="1"
     showguides="true"
     inkscape:guide-bbox="true"
     inkscape:snap-bbox="true"
     inkscape:snap-bbox-midpoints="true"
     inkscape:snap-bbox-edge-midpoints="true"
     inkscape:bbox-nodes="true"
     inkscape:object-paths="true"
     inkscape:object-nodes="true"
     units="mm"
     fit-margin-top="0"
     fit-margin-left="0"
     fit-margin-right="0"
     fit-margin-bottom="0" />
  <metadata
     id="metadata8941">
    <rdf:RDF>
      <cc:Work
         rdf:about="">
        <dc:format>image/svg+xml</dc:format>
        <dc:type
           rdf:resource="http://purl.org/dc/dcmitype/StillImage" />
        <dc:title></dc:title>
      </cc:Work>
    </rdf:RDF>
  </metadata>
  <g
     inkscape:label="Layer 1"
     inkscape:groupmode="layer"
     id="layer1"
     transform="translate(-25.714266,-273.25903)">
    <g
       id="g10500">
      <path
         inkscape:connector-curvature="0"
         id="path3042"
         d="m 304.27267,349.21007 c 0,5.15795 -0.80057,9.73369 -2.42221,13.70478 -1.59741,3.97112 -3.94685,7.31147 -7.02221,10.0248 -3.07537,2.73574 -6.8524,4.79407 -11.30683,6.22166 -4.48054,1.40518 -9.73369,2.1311 -15.78737,2.1311 l -7.65296,0 0,29.29996 c 0,0.45905 -0.16792,0.89574 -0.45907,1.25776 -0.31537,0.38815 -0.82296,0.70166 -1.52649,0.92 -0.72593,0.24259 -1.67016,0.43668 -2.85703,0.58223 -1.16261,0.14548 -2.68721,0.21834 -4.52721,0.21834 -1.79147,0 -3.29369,-0.0727 -4.50482,-0.21834 -1.20923,-0.14548 -2.17775,-0.33964 -2.88128,-0.58223 -0.70168,-0.21834 -1.21111,-0.53185 -1.4761,-0.92 -0.29113,-0.36202 -0.43668,-0.79871 -0.43668,-1.25776 l 0,-82.59449 c 0,-2.20202 0.58223,-3.87407 1.74483,-4.98813 1.16073,-1.11407 2.68721,-1.67019 4.57572,-1.67019 l 21.62273,0 c 2.17964,0 4.26222,0.0727 6.22352,0.2426 1.9613,0.16792 4.30886,0.53184 7.04461,1.06557 2.76186,0.55609 5.52185,1.54887 8.33035,3.02681 2.83278,1.45186 5.23074,3.31612 7.2163,5.56852 1.98555,2.22814 3.48592,4.86685 4.5272,7.86943 1.0413,3.0026 1.575,6.36907 1.575,10.09758 z m -19.51588,1.3548 c 0,-3.21905 -0.55798,-5.85961 -1.69631,-7.94221 -1.13832,-2.08071 -2.54166,-3.63147 -4.18944,-4.62424 -1.64591,-0.99278 -3.38887,-1.59739 -5.20461,-1.86425 -1.83998,-0.26687 -3.7061,-0.38815 -5.64313,-0.38815 l -7.94221,0 0,31.13995 8.3546,0 c 2.97833,0 5.47333,-0.41243 7.48129,-1.21112 2.00981,-0.7987 3.65759,-1.93703 4.93961,-3.36648 1.2839,-1.45183 2.2524,-3.17054 2.90556,-5.18036 0.65502,-2.0098 0.99464,-4.18942 0.99464,-6.56314 z m 65.87965,60.14879 c 0,0.48333 -0.12133,0.89574 -0.41241,1.25778 -0.29112,0.33964 -0.77444,0.65499 -1.45184,0.87148 -0.70353,0.24258 -1.59927,0.41241 -2.73759,0.53371 -1.13834,0.12133 -2.56593,0.19407 -4.33315,0.19407 -1.74482,0 -3.19667,-0.0727 -4.31074,-0.19407 -1.13834,-0.12134 -2.05833,-0.29113 -2.73573,-0.53371 -0.70164,-0.21649 -1.18685,-0.53184 -1.45369,-0.87148 -0.29112,-0.36204 -0.43482,-0.77445 -0.43482,-1.25778 l 0,-93.27242 c 0,-0.48521 0.14377,-0.89574 0.43482,-1.28389 0.26684,-0.38628 0.75205,-0.70167 1.45369,-0.94426 0.6774,-0.26687 1.59739,-0.45906 2.73573,-0.60464 1.11407,-0.14548 2.56592,-0.21832 4.31074,-0.21832 1.76722,0 3.19481,0.0727 4.33315,0.21832 1.13832,0.14548 2.03406,0.33777 2.73759,0.60464 0.6774,0.24259 1.16072,0.55798 1.45184,0.94426 0.29111,0.38815 0.41241,0.79868 0.41241,1.28389 l 0,93.27242 z m 86.84924,0.21648 c 0,0.67926 -0.24259,1.18685 -0.72779,1.57501 -0.45907,0.36203 -1.2111,0.62887 -2.22626,0.79869 -1.01705,0.16985 -2.51928,0.26686 -4.50484,0.26686 -2.1311,0 -3.67998,-0.097 -4.64851,-0.26686 -0.9685,-0.16986 -1.64776,-0.43666 -2.0583,-0.79869 -0.38817,-0.38816 -0.6065,-0.89575 -0.6065,-1.57501 l 0,-5.03665 c -2.59017,2.78424 -5.5685,4.96386 -8.88647,6.53887 -3.34035,1.54889 -7.04461,2.32332 -11.11276,2.32332 -3.36647,0 -6.44184,-0.4348 -9.25035,-1.30627 -2.80851,-0.87149 -5.25313,-2.17963 -7.31145,-3.89834 -2.05833,-1.72057 -3.65761,-3.87594 -4.79593,-6.41759 -1.13648,-2.56591 -1.69444,-5.54424 -1.69444,-8.93498 0,-3.70424 0.72591,-6.90091 2.15537,-9.61238 1.45371,-2.73574 3.60722,-4.96388 6.46423,-6.75536 2.85705,-1.76723 6.41759,-3.07537 10.67981,-3.9226 4.26037,-0.84719 9.19998,-1.28387 14.81886,-1.28387 l 6.17313,0 0,-3.82554 c 0,-1.98557 -0.19408,-3.72853 -0.60461,-5.20649 -0.38815,-1.50035 -1.06557,-2.73572 -1.98557,-3.72851 -0.92,-0.99276 -2.15537,-1.7187 -3.67999,-2.20388 -1.55074,-0.48334 -3.43924,-0.70166 -5.71591,-0.70166 -2.97833,0 -5.64129,0.31537 -7.99075,0.99276 -2.3233,0.65315 -4.4059,1.38093 -6.19737,2.20389 -1.79335,0.79871 -3.29371,1.52462 -4.50481,2.17778 -1.20925,0.67927 -2.17778,0.99464 -2.95408,0.99464 -0.50758,0 -0.9685,-0.14548 -1.37907,-0.48521 -0.38814,-0.33963 -0.72591,-0.79868 -0.99275,-1.42944 -0.24261,-0.60461 -0.46095,-1.3548 -0.6065,-2.25054 -0.14547,-0.92001 -0.19229,-1.91276 -0.19229,-3.00258 0,-1.45371 0.0952,-2.61631 0.33777,-3.46354 0.24259,-0.8472 0.70166,-1.62164 1.35666,-2.29905 0.65315,-0.70351 1.81574,-1.45371 3.46166,-2.27667 1.67205,-0.82295 3.60908,-1.59925 5.83535,-2.30092 2.20388,-0.72591 4.65039,-1.28389 7.26482,-1.74295 2.61443,-0.46094 5.32777,-0.6774 8.11201,-0.6774 4.9639,0 9.22424,0.48332 12.73629,1.45183 3.53443,0.96852 6.41571,2.46887 8.69238,4.48055 2.27666,2.00981 3.9226,4.59998 4.96388,7.7724 1.0413,3.14628 1.575,6.92518 1.575,11.25831 l 0,42.56807 z m -17.5322,-27.09422 -6.80388,0 c -2.88128,0 -5.35015,0.21836 -7.38423,0.62891 -2.03407,0.43666 -3.68186,1.06555 -4.96387,1.91275 -1.2839,0.87149 -2.20388,1.88853 -2.80852,3.09963 -0.58223,1.21111 -0.87334,2.59017 -0.87334,4.14093 0,2.66295 0.82482,4.74555 2.51925,6.2459 1.67019,1.5265 3.99538,2.27666 6.97371,2.27666 2.51738,0 4.81831,-0.62888 6.92516,-1.91275 2.10685,-1.28391 4.23609,-3.14815 6.41572,-5.61704 l 0,-10.77499 z m -0.26499,-67.24191 c 0.071,-0.89574 0.55611,-1.59924 1.37905,-2.05833 0.82298,-0.48518 2.27669,-0.72778 4.35929,-0.72778 1.23536,0 2.25052,0.0503 3.05109,0.14563 0.79871,0.097 1.42758,0.24259 1.88852,0.43666 0.43481,0.19407 0.75017,0.43669 0.92,0.77446 0.14548,0.33962 0.24073,0.70164 0.24073,1.13832 0,3.17242 -0.41056,5.98091 -1.23351,8.44978 -0.84723,2.44651 -2.08259,4.52908 -3.77703,6.19927 -1.67204,1.67017 -3.82556,2.95405 -6.44184,3.82554 -2.6387,0.87148 -5.71405,1.30814 -9.27463,1.30814 -3.67999,0 -6.82813,-0.43666 -9.4183,-1.30814 -2.61444,-0.87149 -4.74554,-2.15537 -6.39334,-3.82554 -1.6459,-1.67019 -2.88129,-3.72851 -3.65572,-6.175 -0.77444,-2.44462 -1.16259,-5.20461 -1.16259,-8.3285 0,-0.94425 0.38815,-1.62164 1.21111,-2.03406 0.79871,-0.38815 2.32517,-0.6065 4.59999,-0.6065 1.18685,0 2.15536,0.0503 2.95593,0.14563 0.77445,0.0972 1.40332,0.26686 1.86426,0.50945 0.48333,0.2426 0.79868,0.53185 0.99276,0.87148 0.19229,0.36389 0.31351,0.77445 0.36205,1.25963 0.14547,1.25963 0.38814,2.42036 0.7035,3.43739 0.33776,1.01705 0.84723,1.88853 1.52463,2.61631 0.70166,0.72591 1.55075,1.28203 2.59018,1.67018 1.0413,0.38815 2.32519,0.55609 3.82554,0.55609 1.38094,0 2.59205,-0.14378 3.63334,-0.48333 1.0413,-0.33962 1.93702,-0.84721 2.68721,-1.52646 0.75205,-0.67742 1.35666,-1.5489 1.76721,-2.56594 0.43668,-0.99276 0.70354,-2.2524 0.80057,-3.70424 z m 86.80072,87.89616 c 0,2.08258 -0.12133,3.65572 -0.38814,4.76979 -0.26684,1.11409 -0.60461,1.8885 -1.0413,2.34944 -0.41241,0.45907 -1.04129,0.84723 -1.86426,1.20925 -0.82295,0.33962 -1.79147,0.65501 -2.90554,0.92001 -1.11406,0.26684 -2.32518,0.46091 -3.63147,0.60647 -1.2839,0.14547 -2.61631,0.21835 -3.92259,0.21835 -3.56055,0 -6.63591,-0.46094 -9.22609,-1.35669 -2.61631,-0.89571 -4.74554,-2.27665 -6.4661,-4.1409 -1.69446,-1.88851 -2.95221,-4.23795 -3.75278,-7.07075 -0.79869,-2.83276 -1.21112,-6.19925 -1.21112,-10.07331 l 0,-32.42198 -7.5783,0 c -0.89575,0 -1.59739,-0.55609 -2.05834,-1.67016 -0.48332,-1.11409 -0.72592,-2.95408 -0.72592,-5.56852 0,-1.35666 0.0727,-2.51925 0.19409,-3.46351 0.12133,-0.94426 0.28925,-1.69444 0.53183,-2.25241 0.21833,-0.53185 0.53372,-0.91999 0.87148,-1.16258 0.3639,-0.24073 0.77631,-0.36205 1.25963,-0.36205 l 7.50553,0 0,-14.11718 c 0,-0.45907 0.12133,-0.89575 0.38816,-1.25778 0.26686,-0.38816 0.75018,-0.70352 1.42944,-0.96852 0.67741,-0.26684 1.59741,-0.43666 2.76001,-0.55798 1.16259,-0.12133 2.59017,-0.19407 4.28647,-0.19407 1.76721,0 3.21905,0.0727 4.38164,0.19407 1.13833,0.12134 2.05833,0.29114 2.71149,0.55798 0.67926,0.265 1.13833,0.58036 1.42944,0.96852 0.29112,0.36203 0.41242,0.79871 0.41242,1.25778 l 0,14.11718 13.77756,0 c 0.45907,0 0.87148,0.12133 1.23351,0.36205 0.36388,0.24259 0.65502,0.63073 0.89572,1.16258 0.21835,0.55797 0.41242,1.30815 0.53373,2.25241 0.12133,0.94426 0.16985,2.10685 0.16985,3.46351 0,2.61444 -0.24259,4.45443 -0.70354,5.56852 -0.48332,1.11407 -1.16071,1.67016 -2.05646,1.67016 l -13.85033,0 0,29.73477 c 0,3.43926 0.5561,6.02943 1.6459,7.74814 1.08982,1.74482 3.02687,2.59203 5.81111,2.59203 0.94425,0 1.79148,-0.0727 2.56591,-0.24259 0.75205,-0.16985 1.42946,-0.33964 2.00981,-0.5561 0.58223,-0.21834 1.08982,-0.41241 1.50225,-0.58223 0.38628,-0.16986 0.75016,-0.24261 1.0898,-0.24261 0.28925,0 0.5561,0.0727 0.82294,0.24261 0.24262,0.16985 0.45907,0.50946 0.60464,0.99278 0.12134,0.50943 0.26686,1.18685 0.38815,2.03406 0.12133,0.84722 0.16985,1.93704 0.16985,3.26946 z m 84.69388,-27.24164 c 0,2.15537 -0.48517,3.7789 -1.45371,4.81831 -0.96851,1.0413 -2.30092,1.55076 -3.99536,1.55076 l -38.52418,0 c 0,2.71146 0.31535,5.15797 0.94426,7.33572 0.65313,2.20388 1.67016,4.06814 3.0511,5.61889 1.40519,1.52462 3.19667,2.71147 5.40056,3.51015 2.20201,0.79871 4.84257,1.21114 7.91794,1.21114 3.12201,0 5.85774,-0.24261 8.20721,-0.67741 2.37369,-0.46093 4.43202,-0.94426 6.15072,-1.50223 1.71871,-0.53185 3.14815,-1.04128 4.28647,-1.47608 1.13833,-0.46095 2.05647,-0.67743 2.76001,-0.67743 0.4348,0 0.79869,0.071 1.06555,0.24073 0.28925,0.16986 0.53184,0.46095 0.72591,0.89575 0.16985,0.41241 0.31539,1.01703 0.38817,1.81573 0.0727,0.7763 0.097,1.74482 0.097,2.92981 0,1.0413 -0.0241,1.93891 -0.0727,2.66483 -0.0486,0.72591 -0.12133,1.35479 -0.21835,1.8885 -0.0727,0.50759 -0.21834,0.94426 -0.41241,1.30628 -0.19407,0.36391 -0.43481,0.70353 -0.75018,1.01891 -0.31537,0.33777 -1.13834,0.79869 -2.5174,1.3548 -1.38093,0.55798 -3.12389,1.11407 -5.25501,1.67205 -2.1311,0.53184 -4.55144,1.01517 -7.28905,1.40332 -2.75999,0.41242 -5.68979,0.60462 -8.81369,0.60462 -5.61702,0 -10.55663,-0.70166 -14.79459,-2.12925 -4.2137,-1.40517 -7.74814,-3.56054 -10.60518,-6.44184 -2.83276,-2.88129 -4.93961,-6.53703 -6.34479,-10.92054 -1.37907,-4.40777 -2.0826,-9.56386 -2.0826,-15.47199 0,-5.61702 0.7278,-10.70221 2.20389,-15.20702 1.45371,-4.52721 3.58295,-8.35276 6.36907,-11.50089 2.80851,-3.14815 6.19925,-5.54611 10.19274,-7.19205 3.99537,-1.67016 8.50017,-2.49314 13.51259,-2.49314 5.30165,0 9.83071,0.77446 13.5835,2.34758 3.75276,1.55076 6.85239,3.72851 9.25035,6.49038 2.42035,2.75997 4.18758,6.02943 5.32591,9.83072 1.13834,3.77703 1.69628,7.89369 1.69628,12.32386 l 0,2.85703 z m -17.31386,-5.10945 c 0.14548,-5.01052 -0.84721,-8.95737 -3.00258,-11.81626 -2.15537,-2.85704 -5.47149,-4.28463 -9.97629,-4.28463 -2.2748,0 -4.23796,0.41243 -5.90813,1.25966 -1.69444,0.8472 -3.07537,2.0098 -4.18944,3.43737 -1.11223,1.45372 -1.9613,3.14815 -2.56592,5.10945 -0.58036,1.96129 -0.92,4.06815 -1.01703,6.29441 l 26.65939,0 z m 91.66756,20.70461 c 0,3.60722 -0.67739,6.75535 -2.03406,9.51536 -1.33055,2.73573 -3.24519,5.03665 -5.68981,6.87666 -2.47073,1.83998 -5.37629,3.22092 -8.74091,4.14092 -3.34222,0.91998 -6.99794,1.37905 -10.92052,1.37905 -2.37372,0 -4.62613,-0.16985 -6.77963,-0.53184 -2.15536,-0.33962 -4.06814,-0.79869 -5.76444,-1.33241 -1.7187,-0.5561 -3.12201,-1.11407 -4.26035,-1.67017 -1.13834,-0.58223 -1.9613,-1.11409 -2.49501,-1.59741 -0.50759,-0.50944 -0.92,-1.28389 -1.2111,-2.34944 -0.265,-1.06556 -0.41056,-2.63869 -0.41056,-4.72129 0,-1.35666 0.0486,-2.47076 0.14548,-3.2937 0.097,-0.82296 0.24073,-1.47609 0.41055,-1.98555 0.19409,-0.48332 0.43668,-0.82296 0.72779,-0.99278 0.26498,-0.16985 0.62889,-0.24259 1.06555,-0.24259 0.50758,0 1.28203,0.2911 2.29906,0.89574 1.01704,0.58222 2.27667,1.23537 3.80128,1.93889 1.50224,0.70166 3.26945,1.37907 5.27927,1.98369 2.00981,0.63075 4.28647,0.92186 6.82812,0.92186 1.62166,0 3.05112,-0.16985 4.31074,-0.48518 1.23537,-0.33964 2.32333,-0.79871 3.24333,-1.42946 0.94427,-0.60462 1.62353,-1.37907 2.10685,-2.34758 0.46091,-0.94425 0.70353,-2.03405 0.70353,-3.24519 0,-1.42758 -0.43669,-2.63869 -1.30817,-3.65572 -0.87146,-1.01704 -2.03405,-1.91277 -3.48592,-2.66482 -1.42942,-0.75017 -3.05108,-1.47612 -4.89295,-2.12924 -1.81574,-0.65502 -3.67997,-1.40518 -5.59275,-2.20389 -1.91278,-0.79871 -3.77703,-1.71869 -5.61704,-2.75999 -1.8176,-1.04129 -3.43924,-2.32519 -4.89109,-3.82556 -1.42946,-1.52646 -2.59205,-3.34221 -3.46353,-5.47333 -0.87146,-2.1311 -1.30814,-4.67275 -1.30814,-7.6511 0,-3.02683 0.58223,-5.81109 1.76908,-8.33034 1.18684,-2.54165 2.88128,-4.69702 5.10756,-6.51276 2.20389,-1.79148 4.91724,-3.17242 8.11202,-4.16519 3.19667,-0.99278 6.7815,-1.50037 10.75259,-1.50037 1.9837,0 3.92073,0.14548 5.78686,0.4348 1.86425,0.26688 3.55869,0.63077 5.05904,1.06557 1.52648,0.41241 2.78614,0.87148 3.8274,1.38094 1.0413,0.48332 1.7915,0.92 2.25055,1.25777 0.43668,0.36387 0.75019,0.72778 0.94427,1.06555 0.19407,0.36389 0.33962,0.80057 0.43667,1.28389 0.097,0.50943 0.16985,1.11407 0.24259,1.83998 0.0727,0.75019 0.12133,1.64594 0.12133,2.73574 0,1.28389 -0.0486,2.32519 -0.12133,3.1239 -0.0727,0.79868 -0.19407,1.45369 -0.36391,1.91275 -0.14547,0.48521 -0.38814,0.80056 -0.65312,0.96853 -0.29111,0.16985 -0.63075,0.24259 -0.99278,0.24259 -0.43668,0 -1.08982,-0.24259 -1.98555,-0.75018 -0.91998,-0.48519 -2.03408,-1.01703 -3.39074,-1.59739 -1.33241,-0.55798 -2.90555,-1.08982 -4.67278,-1.59928 -1.76719,-0.48332 -3.80127,-0.72593 -6.05368,-0.72593 -1.62167,0 -3.0026,0.14548 -4.18943,0.48334 -1.185,0.33963 -2.15537,0.7987 -2.90556,1.42944 -0.77443,0.60463 -1.33241,1.33241 -1.7187,2.15537 -0.3639,0.82297 -0.55612,1.7187 -0.55612,2.66296 0,1.45184 0.43484,2.68722 1.35482,3.67998 0.89573,0.99278 2.05833,1.86426 3.53442,2.64057 1.47797,0.75018 3.1239,1.45184 5.01427,2.12925 1.86426,0.65501 3.75279,1.38092 5.66554,2.15537 1.91278,0.7763 3.80131,1.69442 5.66555,2.73758 1.86426,1.03944 3.53442,2.29907 5.0124,3.82556 1.45185,1.50036 2.63869,3.31608 3.53444,5.42294 0.8976,2.10685 1.35666,4.60186 1.35666,7.48314 z m 76.41391,7.79665 c 0,1.23352 -0.0486,2.27482 -0.12134,3.09778 -0.0727,0.82482 -0.16985,1.52648 -0.26687,2.08257 -0.12133,0.58223 -0.26685,1.0413 -0.43666,1.38094 -0.16985,0.36389 -0.53184,0.82296 -1.08796,1.35666 -0.58223,0.53187 -1.55073,1.20926 -2.93167,1.98556 -1.3548,0.77444 -2.9298,1.4761 -4.67277,2.08258 -1.74295,0.62888 -3.65573,1.11223 -5.71406,1.50037 -2.05833,0.38816 -4.16518,0.55798 -6.3448,0.55798 -4.86685,0 -9.17573,-0.75205 -12.95461,-2.25242 -3.75278,-1.52649 -6.89905,-3.75463 -9.46683,-6.70684 -2.54166,-2.95592 -4.47869,-6.56314 -5.76259,-10.82349 -1.30814,-4.26222 -1.96127,-9.12906 -1.96127,-14.60238 0,-6.34297 0.79868,-11.81629 2.37182,-16.44055 1.59926,-4.60184 3.80315,-8.42737 6.63594,-11.45423 2.83276,-3.02685 6.19924,-5.2774 10.07331,-6.7311 3.87407,-1.4761 8.13443,-2.20388 12.76053,-2.20388 1.91278,0 3.75276,0.16985 5.5685,0.50946 1.83999,0.31536 3.53444,0.77443 5.10945,1.33241 1.59739,0.58035 3.00258,1.20924 4.2622,1.91278 1.25777,0.72591 2.12925,1.33051 2.66297,1.83998 0.50758,0.53183 0.89572,0.96851 1.08981,1.3324 0.21834,0.33777 0.38628,0.7987 0.50759,1.37905 0.12133,0.55798 0.21832,1.25966 0.2911,2.0826 0.0727,0.82297 0.0972,1.84 0.0972,3.02685 0,2.73573 -0.2426,4.67278 -0.70353,5.78684 -0.48334,1.08982 -1.08796,1.64591 -1.83814,1.64591 -0.82483,0 -1.67203,-0.31348 -2.56778,-0.99089 -0.89574,-0.65502 -1.96129,-1.38093 -3.19666,-2.17964 -1.2335,-0.82482 -2.68721,-1.55074 -4.38165,-2.20388 -1.72057,-0.67741 -3.75276,-0.99279 -6.1022,-0.99279 -4.64851,0 -8.18482,1.76723 -10.65371,5.35204 -2.44647,3.55869 -3.68184,8.81369 -3.68184,15.71275 0,3.39074 0.2911,6.3933 0.92187,9.00961 0.60461,2.59018 1.5246,4.76981 2.73572,6.51277 1.18498,1.76721 2.71148,3.07535 4.52721,3.94683 1.81574,0.8715 3.94686,1.3063 6.34482,1.3063 2.46887,0 4.57572,-0.36203 6.36718,-1.08794 1.76723,-0.72779 3.31799,-1.55075 4.62613,-2.44649 1.33055,-0.89575 2.44462,-1.7187 3.34036,-2.44462 0.89572,-0.75205 1.67018,-1.11409 2.27666,-1.11409 0.4348,0 0.77443,0.12134 1.06557,0.36204 0.2911,0.24259 0.50757,0.6774 0.67739,1.30814 0.16985,0.6289 0.29112,1.45372 0.38816,2.4465 0.0972,0.99277 0.14547,2.2748 0.14547,3.82553 z"
         style="fill:#52688e;stroke:#2c2c2b;stroke-width:2.85596657" />
      <path
         inkscape:connector-curvature="0"
         id="path3044"
         d="m 304.27267,349.21007 c 0,5.15795 -0.80057,9.73369 -2.42221,13.70478 -1.59741,3.97112 -3.94685,7.31147 -7.02221,10.0248 -3.07537,2.73574 -6.8524,4.79407 -11.30683,6.22166 -4.48054,1.40518 -9.73369,2.1311 -15.78737,2.1311 l -7.65296,0 0,29.29996 c 0,0.45905 -0.16792,0.89574 -0.45907,1.25776 -0.31537,0.38815 -0.82296,0.70166 -1.52649,0.92 -0.72593,0.24259 -1.67016,0.43668 -2.85703,0.58223 -1.16261,0.14548 -2.68721,0.21834 -4.52721,0.21834 -1.79147,0 -3.29369,-0.0727 -4.50482,-0.21834 -1.20923,-0.14548 -2.17775,-0.33964 -2.88128,-0.58223 -0.70168,-0.21834 -1.21111,-0.53185 -1.4761,-0.92 -0.29113,-0.36202 -0.43668,-0.79871 -0.43668,-1.25776 l 0,-82.59449 c 0,-2.20202 0.58223,-3.87407 1.74483,-4.98813 1.16073,-1.11407 2.68721,-1.67019 4.57572,-1.67019 l 21.62273,0 c 2.17964,0 4.26222,0.0727 6.22352,0.2426 1.9613,0.16792 4.30886,0.53184 7.04461,1.06557 2.76186,0.55609 5.52185,1.54887 8.33035,3.02681 2.83278,1.45186 5.23074,3.31612 7.2163,5.56852 1.98555,2.22814 3.48592,4.86685 4.5272,7.86943 1.0413,3.0026 1.575,6.36907 1.575,10.09758 z m -19.51588,1.3548 c 0,-3.21905 -0.55798,-5.85961 -1.69631,-7.94221 -1.13832,-2.08071 -2.54166,-3.63147 -4.18944,-4.62424 -1.64591,-0.99278 -3.38887,-1.59739 -5.20461,-1.86425 -1.83998,-0.26687 -3.7061,-0.38815 -5.64313,-0.38815 l -7.94221,0 0,31.13995 8.3546,0 c 2.97833,0 5.47333,-0.41243 7.48129,-1.21112 2.00981,-0.7987 3.65759,-1.93703 4.93961,-3.36648 1.2839,-1.45183 2.2524,-3.17054 2.90556,-5.18036 0.65502,-2.0098 0.99464,-4.18942 0.99464,-6.56314 z m 65.87965,60.14879 c 0,0.48333 -0.12133,0.89574 -0.41241,1.25778 -0.29112,0.33964 -0.77444,0.65499 -1.45184,0.87148 -0.70353,0.24258 -1.59927,0.41241 -2.73759,0.53371 -1.13834,0.12133 -2.56593,0.19407 -4.33315,0.19407 -1.74482,0 -3.19667,-0.0727 -4.31074,-0.19407 -1.13834,-0.12134 -2.05833,-0.29113 -2.73573,-0.53371 -0.70164,-0.21649 -1.18685,-0.53184 -1.45369,-0.87148 -0.29112,-0.36204 -0.43482,-0.77445 -0.43482,-1.25778 l 0,-93.27242 c 0,-0.48521 0.14377,-0.89574 0.43482,-1.28389 0.26684,-0.38628 0.75205,-0.70167 1.45369,-0.94426 0.6774,-0.26687 1.59739,-0.45906 2.73573,-0.60464 1.11407,-0.14548 2.56592,-0.21832 4.31074,-0.21832 1.76722,0 3.19481,0.0727 4.33315,0.21832 1.13832,0.14548 2.03406,0.33777 2.73759,0.60464 0.6774,0.24259 1.16072,0.55798 1.45184,0.94426 0.29111,0.38815 0.41241,0.79868 0.41241,1.28389 l 0,93.27242 z m 86.84924,0.21648 c 0,0.67926 -0.24259,1.18685 -0.72779,1.57501 -0.45907,0.36203 -1.2111,0.62887 -2.22626,0.79869 -1.01705,0.16985 -2.51928,0.26686 -4.50484,0.26686 -2.1311,0 -3.67998,-0.097 -4.64851,-0.26686 -0.9685,-0.16986 -1.64776,-0.43666 -2.0583,-0.79869 -0.38817,-0.38816 -0.6065,-0.89575 -0.6065,-1.57501 l 0,-5.03665 c -2.59017,2.78424 -5.5685,4.96386 -8.88647,6.53887 -3.34035,1.54889 -7.04461,2.32332 -11.11276,2.32332 -3.36647,0 -6.44184,-0.4348 -9.25035,-1.30627 -2.80851,-0.87149 -5.25313,-2.17963 -7.31145,-3.89834 -2.05833,-1.72057 -3.65761,-3.87594 -4.79593,-6.41759 -1.13648,-2.56591 -1.69444,-5.54424 -1.69444,-8.93498 0,-3.70424 0.72591,-6.90091 2.15537,-9.61238 1.45371,-2.73574 3.60722,-4.96388 6.46423,-6.75536 2.85705,-1.76723 6.41759,-3.07537 10.67981,-3.9226 4.26037,-0.84719 9.19998,-1.28387 14.81886,-1.28387 l 6.17313,0 0,-3.82554 c 0,-1.98557 -0.19408,-3.72853 -0.60461,-5.20649 -0.38815,-1.50035 -1.06557,-2.73572 -1.98557,-3.72851 -0.92,-0.99276 -2.15537,-1.7187 -3.67999,-2.20388 -1.55074,-0.48334 -3.43924,-0.70166 -5.71591,-0.70166 -2.97833,0 -5.64129,0.31537 -7.99075,0.99276 -2.3233,0.65315 -4.4059,1.38093 -6.19737,2.20389 -1.79335,0.79871 -3.29371,1.52462 -4.50481,2.17778 -1.20925,0.67927 -2.17778,0.99464 -2.95408,0.99464 -0.50758,0 -0.9685,-0.14548 -1.37907,-0.48521 -0.38814,-0.33963 -0.72591,-0.79868 -0.99275,-1.42944 -0.24261,-0.60461 -0.46095,-1.3548 -0.6065,-2.25054 -0.14547,-0.92001 -0.19229,-1.91276 -0.19229,-3.00258 0,-1.45371 0.0952,-2.61631 0.33777,-3.46354 0.24259,-0.8472 0.70166,-1.62164 1.35666,-2.29905 0.65315,-0.70351 1.81574,-1.45371 3.46166,-2.27667 1.67205,-0.82295 3.60908,-1.59925 5.83535,-2.30092 2.20388,-0.72591 4.65039,-1.28389 7.26482,-1.74295 2.61443,-0.46094 5.32777,-0.6774 8.11201,-0.6774 4.9639,0 9.22424,0.48332 12.73629,1.45183 3.53443,0.96852 6.41571,2.46887 8.69238,4.48055 2.27666,2.00981 3.9226,4.59998 4.96388,7.7724 1.0413,3.14628 1.575,6.92518 1.575,11.25831 l 0,42.56807 z m -17.5322,-27.09422 -6.80388,0 c -2.88128,0 -5.35015,0.21836 -7.38423,0.62891 -2.03407,0.43666 -3.68186,1.06555 -4.96387,1.91275 -1.2839,0.87149 -2.20388,1.88853 -2.80852,3.09963 -0.58223,1.21111 -0.87334,2.59017 -0.87334,4.14093 0,2.66295 0.82482,4.74555 2.51925,6.2459 1.67019,1.5265 3.99538,2.27666 6.97371,2.27666 2.51738,0 4.81831,-0.62888 6.92516,-1.91275 2.10685,-1.28391 4.23609,-3.14815 6.41572,-5.61704 l 0,-10.77499 z m -0.26499,-67.24191 c 0.071,-0.89574 0.55611,-1.59924 1.37905,-2.05833 0.82298,-0.48518 2.27669,-0.72778 4.35929,-0.72778 1.23536,0 2.25052,0.0503 3.05109,0.14563 0.79871,0.097 1.42758,0.24259 1.88852,0.43666 0.43481,0.19407 0.75017,0.43669 0.92,0.77446 0.14548,0.33962 0.24073,0.70164 0.24073,1.13832 0,3.17242 -0.41056,5.98091 -1.23351,8.44978 -0.84723,2.44651 -2.08259,4.52908 -3.77703,6.19927 -1.67204,1.67017 -3.82556,2.95405 -6.44184,3.82554 -2.6387,0.87148 -5.71405,1.30814 -9.27463,1.30814 -3.67999,0 -6.82813,-0.43666 -9.4183,-1.30814 -2.61444,-0.87149 -4.74554,-2.15537 -6.39334,-3.82554 -1.6459,-1.67019 -2.88129,-3.72851 -3.65572,-6.175 -0.77444,-2.44462 -1.16259,-5.20461 -1.16259,-8.3285 0,-0.94425 0.38815,-1.62164 1.21111,-2.03406 0.79871,-0.38815 2.32517,-0.6065 4.59999,-0.6065 1.18685,0 2.15536,0.0503 2.95593,0.14563 0.77445,0.0972 1.40332,0.26686 1.86426,0.50945 0.48333,0.2426 0.79868,0.53185 0.99276,0.87148 0.19229,0.36389 0.31351,0.77445 0.36205,1.25963 0.14547,1.25963 0.38814,2.42036 0.7035,3.43739 0.33776,1.01705 0.84723,1.88853 1.52463,2.61631 0.70166,0.72591 1.55075,1.28203 2.59018,1.67018 1.0413,0.38815 2.32519,0.55609 3.82554,0.55609 1.38094,0 2.59205,-0.14378 3.63334,-0.48333 1.0413,-0.33962 1.93702,-0.84721 2.68721,-1.52646 0.75205,-0.67742 1.35666,-1.5489 1.76721,-2.56594 0.43668,-0.99276 0.70354,-2.2524 0.80057,-3.70424 z m 86.80072,87.89616 c 0,2.08258 -0.12133,3.65572 -0.38814,4.76979 -0.26684,1.11409 -0.60461,1.8885 -1.0413,2.34944 -0.41241,0.45907 -1.04129,0.84723 -1.86426,1.20925 -0.82295,0.33962 -1.79147,0.65501 -2.90554,0.92001 -1.11406,0.26684 -2.32518,0.46091 -3.63147,0.60647 -1.2839,0.14547 -2.61631,0.21835 -3.92259,0.21835 -3.56055,0 -6.63591,-0.46094 -9.22609,-1.35669 -2.61631,-0.89571 -4.74554,-2.27665 -6.4661,-4.1409 -1.69446,-1.88851 -2.95221,-4.23795 -3.75278,-7.07075 -0.79869,-2.83276 -1.21112,-6.19925 -1.21112,-10.07331 l 0,-32.42198 -7.5783,0 c -0.89575,0 -1.59739,-0.55609 -2.05834,-1.67016 -0.48332,-1.11409 -0.72592,-2.95408 -0.72592,-5.56852 0,-1.35666 0.0727,-2.51925 0.19409,-3.46351 0.12133,-0.94426 0.28925,-1.69444 0.53183,-2.25241 0.21833,-0.53185 0.53372,-0.91999 0.87148,-1.16258 0.3639,-0.24073 0.77631,-0.36205 1.25963,-0.36205 l 7.50553,0 0,-14.11718 c 0,-0.45907 0.12133,-0.89575 0.38816,-1.25778 0.26686,-0.38816 0.75018,-0.70352 1.42944,-0.96852 0.67741,-0.26684 1.59741,-0.43666 2.76001,-0.55798 1.16259,-0.12133 2.59017,-0.19407 4.28647,-0.19407 1.76721,0 3.21905,0.0727 4.38164,0.19407 1.13833,0.12134 2.05833,0.29114 2.71149,0.55798 0.67926,0.265 1.13833,0.58036 1.42944,0.96852 0.29112,0.36203 0.41242,0.79871 0.41242,1.25778 l 0,14.11718 13.77756,0 c 0.45907,0 0.87148,0.12133 1.23351,0.36205 0.36388,0.24259 0.65502,0.63073 0.89572,1.16258 0.21835,0.55797 0.41242,1.30815 0.53373,2.25241 0.12133,0.94426 0.16985,2.10685 0.16985,3.46351 0,2.61444 -0.24259,4.45443 -0.70354,5.56852 -0.48332,1.11407 -1.16071,1.67016 -2.05646,1.67016 l -13.85033,0 0,29.73477 c 0,3.43926 0.5561,6.02943 1.6459,7.74814 1.08982,1.74482 3.02687,2.59203 5.81111,2.59203 0.94425,0 1.79148,-0.0727 2.56591,-0.24259 0.75205,-0.16985 1.42946,-0.33964 2.00981,-0.5561 0.58223,-0.21834 1.08982,-0.41241 1.50225,-0.58223 0.38628,-0.16986 0.75016,-0.24261 1.0898,-0.24261 0.28925,0 0.5561,0.0727 0.82294,0.24261 0.24262,0.16985 0.45907,0.50946 0.60464,0.99278 0.12134,0.50943 0.26686,1.18685 0.38815,2.03406 0.12133,0.84722 0.16985,1.93704 0.16985,3.26946 z m 84.69388,-27.24164 c 0,2.15537 -0.48517,3.7789 -1.45371,4.81831 -0.96851,1.0413 -2.30092,1.55076 -3.99536,1.55076 l -38.52418,0 c 0,2.71146 0.31535,5.15797 0.94426,7.33572 0.65313,2.20388 1.67016,4.06814 3.0511,5.61889 1.40519,1.52462 3.19667,2.71147 5.40056,3.51015 2.20201,0.79871 4.84257,1.21114 7.91794,1.21114 3.12201,0 5.85774,-0.24261 8.20721,-0.67741 2.37369,-0.46093 4.43202,-0.94426 6.15072,-1.50223 1.71871,-0.53185 3.14815,-1.04128 4.28647,-1.47608 1.13833,-0.46095 2.05647,-0.67743 2.76001,-0.67743 0.4348,0 0.79869,0.071 1.06555,0.24073 0.28925,0.16986 0.53184,0.46095 0.72591,0.89575 0.16985,0.41241 0.31539,1.01703 0.38817,1.81573 0.0727,0.7763 0.097,1.74482 0.097,2.92981 0,1.0413 -0.0241,1.93891 -0.0727,2.66483 -0.0486,0.72591 -0.12133,1.35479 -0.21835,1.8885 -0.0727,0.50759 -0.21834,0.94426 -0.41241,1.30628 -0.19407,0.36391 -0.43481,0.70353 -0.75018,1.01891 -0.31537,0.33777 -1.13834,0.79869 -2.5174,1.3548 -1.38093,0.55798 -3.12389,1.11407 -5.25501,1.67205 -2.1311,0.53184 -4.55144,1.01517 -7.28905,1.40332 -2.75999,0.41242 -5.68979,0.60462 -8.81369,0.60462 -5.61702,0 -10.55663,-0.70166 -14.79459,-2.12925 -4.2137,-1.40517 -7.74814,-3.56054 -10.60518,-6.44184 -2.83276,-2.88129 -4.93961,-6.53703 -6.34479,-10.92054 -1.37907,-4.40777 -2.0826,-9.56386 -2.0826,-15.47199 0,-5.61702 0.7278,-10.70221 2.20389,-15.20702 1.45371,-4.52721 3.58295,-8.35276 6.36907,-11.50089 2.80851,-3.14815 6.19925,-5.54611 10.19274,-7.19205 3.99537,-1.67016 8.50017,-2.49314 13.51259,-2.49314 5.30165,0 9.83071,0.77446 13.5835,2.34758 3.75276,1.55076 6.85239,3.72851 9.25035,6.49038 2.42035,2.75997 4.18758,6.02943 5.32591,9.83072 1.13834,3.77703 1.69628,7.89369 1.69628,12.32386 l 0,2.85703 z m -17.31386,-5.10945 c 0.14548,-5.01052 -0.84721,-8.95737 -3.00258,-11.81626 -2.15537,-2.85704 -5.47149,-4.28463 -9.97629,-4.28463 -2.2748,0 -4.23796,0.41243 -5.90813,1.25966 -1.69444,0.8472 -3.07537,2.0098 -4.18944,3.43737 -1.11223,1.45372 -1.9613,3.14815 -2.56592,5.10945 -0.58036,1.96129 -0.92,4.06815 -1.01703,6.29441 l 26.65939,0 z m 91.66756,20.70461 c 0,3.60722 -0.67739,6.75535 -2.03406,9.51536 -1.33055,2.73573 -3.24519,5.03665 -5.68981,6.87666 -2.47073,1.83998 -5.37629,3.22092 -8.74091,4.14092 -3.34222,0.91998 -6.99794,1.37905 -10.92052,1.37905 -2.37372,0 -4.62613,-0.16985 -6.77963,-0.53184 -2.15536,-0.33962 -4.06814,-0.79869 -5.76444,-1.33241 -1.7187,-0.5561 -3.12201,-1.11407 -4.26035,-1.67017 -1.13834,-0.58223 -1.9613,-1.11409 -2.49501,-1.59741 -0.50759,-0.50944 -0.92,-1.28389 -1.2111,-2.34944 -0.265,-1.06556 -0.41056,-2.63869 -0.41056,-4.72129 0,-1.35666 0.0486,-2.47076 0.14548,-3.2937 0.097,-0.82296 0.24073,-1.47609 0.41055,-1.98555 0.19409,-0.48332 0.43668,-0.82296 0.72779,-0.99278 0.26498,-0.16985 0.62889,-0.24259 1.06555,-0.24259 0.50758,0 1.28203,0.2911 2.29906,0.89574 1.01704,0.58222 2.27667,1.23537 3.80128,1.93889 1.50224,0.70166 3.26945,1.37907 5.27927,1.98369 2.00981,0.63075 4.28647,0.92186 6.82812,0.92186 1.62166,0 3.05112,-0.16985 4.31074,-0.48518 1.23537,-0.33964 2.32333,-0.79871 3.24333,-1.42946 0.94427,-0.60462 1.62353,-1.37907 2.10685,-2.34758 0.46091,-0.94425 0.70353,-2.03405 0.70353,-3.24519 0,-1.42758 -0.43669,-2.63869 -1.30817,-3.65572 -0.87146,-1.01704 -2.03405,-1.91277 -3.48592,-2.66482 -1.42942,-0.75017 -3.05108,-1.47612 -4.89295,-2.12924 -1.81574,-0.65502 -3.67997,-1.40518 -5.59275,-2.20389 -1.91278,-0.79871 -3.77703,-1.71869 -5.61704,-2.75999 -1.8176,-1.04129 -3.43924,-2.32519 -4.89109,-3.82556 -1.42946,-1.52646 -2.59205,-3.34221 -3.46353,-5.47333 -0.87146,-2.1311 -1.30814,-4.67275 -1.30814,-7.6511 0,-3.02683 0.58223,-5.81109 1.76908,-8.33034 1.18684,-2.54165 2.88128,-4.69702 5.10756,-6.51276 2.20389,-1.79148 4.91724,-3.17242 8.11202,-4.16519 3.19667,-0.99278 6.7815,-1.50037 10.75259,-1.50037 1.9837,0 3.92073,0.14548 5.78686,0.4348 1.86425,0.26688 3.55869,0.63077 5.05904,1.06557 1.52648,0.41241 2.78614,0.87148 3.8274,1.38094 1.0413,0.48332 1.7915,0.92 2.25055,1.25777 0.43668,0.36387 0.75019,0.72778 0.94427,1.06555 0.19407,0.36389 0.33962,0.80057 0.43667,1.28389 0.097,0.50943 0.16985,1.11407 0.24259,1.83998 0.0727,0.75019 0.12133,1.64594 0.12133,2.73574 0,1.28389 -0.0486,2.32519 -0.12133,3.1239 -0.0727,0.79868 -0.19407,1.45369 -0.36391,1.91275 -0.14547,0.48521 -0.38814,0.80056 -0.65312,0.96853 -0.29111,0.16985 -0.63075,0.24259 -0.99278,0.24259 -0.43668,0 -1.08982,-0.24259 -1.98555,-0.75018 -0.91998,-0.48519 -2.03408,-1.01703 -3.39074,-1.59739 -1.33241,-0.55798 -2.90555,-1.08982 -4.67278,-1.59928 -1.76719,-0.48332 -3.80127,-0.72593 -6.05368,-0.72593 -1.62167,0 -3.0026,0.14548 -4.18943,0.48334 -1.185,0.33963 -2.15537,0.7987 -2.90556,1.42944 -0.77443,0.60463 -1.33241,1.33241 -1.7187,2.15537 -0.3639,0.82297 -0.55612,1.7187 -0.55612,2.66296 0,1.45184 0.43484,2.68722 1.35482,3.67998 0.89573,0.99278 2.05833,1.86426 3.53442,2.64057 1.47797,0.75018 3.1239,1.45184 5.01427,2.12925 1.86426,0.65501 3.75279,1.38092 5.66554,2.15537 1.91278,0.7763 3.80131,1.69442 5.66555,2.73758 1.86426,1.03944 3.53442,2.29907 5.0124,3.82556 1.45185,1.50036 2.63869,3.31608 3.53444,5.42294 0.8976,2.10685 1.35666,4.60186 1.35666,7.48314 z m 76.41391,7.79665 c 0,1.23352 -0.0486,2.27482 -0.12134,3.09778 -0.0727,0.82482 -0.16985,1.52648 -0.26687,2.08257 -0.12133,0.58223 -0.26685,1.0413 -0.43666,1.38094 -0.16985,0.36389 -0.53184,0.82296 -1.08796,1.35666 -0.58223,0.53187 -1.55073,1.20926 -2.93167,1.98556 -1.3548,0.77444 -2.9298,1.4761 -4.67277,2.08258 -1.74295,0.62888 -3.65573,1.11223 -5.71406,1.50037 -2.05833,0.38816 -4.16518,0.55798 -6.3448,0.55798 -4.86685,0 -9.17573,-0.75205 -12.95461,-2.25242 -3.75278,-1.52649 -6.89905,-3.75463 -9.46683,-6.70684 -2.54166,-2.95592 -4.47869,-6.56314 -5.76259,-10.82349 -1.30814,-4.26222 -1.96127,-9.12906 -1.96127,-14.60238 0,-6.34297 0.79868,-11.81629 2.37182,-16.44055 1.59926,-4.60184 3.80315,-8.42737 6.63594,-11.45423 2.83276,-3.02685 6.19924,-5.2774 10.07331,-6.7311 3.87407,-1.4761 8.13443,-2.20388 12.76053,-2.20388 1.91278,0 3.75276,0.16985 5.5685,0.50946 1.83999,0.31536 3.53444,0.77443 5.10945,1.33241 1.59739,0.58035 3.00258,1.20924 4.2622,1.91278 1.25777,0.72591 2.12925,1.33051 2.66297,1.83998 0.50758,0.53183 0.89572,0.96851 1.08981,1.3324 0.21834,0.33777 0.38628,0.7987 0.50759,1.37905 0.12133,0.55798 0.21832,1.25966 0.2911,2.0826 0.0727,0.82297 0.0972,1.84 0.0972,3.02685 0,2.73573 -0.2426,4.67278 -0.70353,5.78684 -0.48334,1.08982 -1.08796,1.64591 -1.83814,1.64591 -0.82483,0 -1.67203,-0.31348 -2.56778,-0.99089 -0.89574,-0.65502 -1.96129,-1.38093 -3.19666,-2.17964 -1.2335,-0.82482 -2.68721,-1.55074 -4.38165,-2.20388 -1.72057,-0.67741 -3.75276,-0.99279 -6.1022,-0.99279 -4.64851,0 -8.18482,1.76723 -10.65371,5.35204 -2.44647,3.55869 -3.68184,8.81369 -3.68184,15.71275 0,3.39074 0.2911,6.3933 0.92187,9.00961 0.60461,2.59018 1.5246,4.76981 2.73572,6.51277 1.18498,1.76721 2.71148,3.07535 4.52721,3.94683 1.81574,0.8715 3.94686,1.3063 6.34482,1.3063 2.46887,0 4.57572,-0.36203 6.36718,-1.08794 1.76723,-0.72779 3.31799,-1.55075 4.62613,-2.44649 1.33055,-0.89575 2.44462,-1.7187 3.34036,-2.44462 0.89572,-0.75205 1.67018,-1.11409 2.27666,-1.11409 0.4348,0 0.77443,0.12134 1.06557,0.36204 0.2911,0.24259 0.50757,0.6774 0.67739,1.30814 0.16985,0.6289 0.29112,1.45372 0.38816,2.4465 0.0972,0.99277 0.14547,2.2748 0.14547,3.82553 z"
         style="fill:#52688e;stroke:#2c2c2b;stroke-width:1.64510679;stroke-linejoin:round;stroke-miterlimit:4;stroke-dasharray:none" />
      <path
         inkscape:connector-curvature="0"
         id="path3046"
         d="m 790.95316,402.91516 c 0,4.40777 -0.75205,7.36185 -2.30092,8.8622 -1.52463,1.52647 -4.28649,2.27666 -8.2576,2.27666 -3.9711,0 -6.73109,-0.75019 -8.23146,-2.22814 -1.52647,-1.50037 -2.27666,-4.30888 -2.27666,-8.47405 0,-4.4563 0.77444,-7.43462 2.30092,-8.93497 1.54888,-1.5265 4.33313,-2.27669 8.35275,-2.27669 3.9226,0 6.63594,0.75019 8.16056,2.22814 1.50036,1.50224 2.25241,4.33502 2.25241,8.54685 z m 73.57925,-49.58842 c 0,1.71869 -0.0486,3.09961 -0.14547,4.18756 -0.0972,1.08982 -0.24261,1.93704 -0.43481,2.56779 -0.16985,0.60461 -0.43667,1.0413 -0.72778,1.25777 -0.31352,0.24259 -0.70167,0.36389 -1.185,0.36389 -0.3639,0 -0.80056,-0.0727 -1.25962,-0.24259 -0.48519,-0.16987 -1.01703,-0.33777 -1.59928,-0.53184 -0.60461,-0.1941 -1.25776,-0.36391 -1.95941,-0.53373 -0.70353,-0.16985 -1.47797,-0.24073 -2.34947,-0.24073 -0.99275,0 -1.98553,0.19229 -2.97831,0.58036 -0.99277,0.41242 -2.00982,1.0413 -3.07537,1.88853 -1.06555,0.84723 -2.17962,1.98555 -3.34222,3.41499 -1.16073,1.40332 -2.3961,3.1724 -3.72849,5.23073 l 0,39.4442 c 0,0.48332 -0.12134,0.89573 -0.41243,1.25777 -0.28925,0.33964 -0.77444,0.65501 -1.45184,0.87148 -0.70166,0.24258 -1.5974,0.41241 -2.73572,0.53371 -1.13834,0.12133 -2.5678,0.19407 -4.33501,0.19407 -1.74296,0 -3.19667,-0.0727 -4.30888,-0.19407 -1.13833,-0.12134 -2.05833,-0.29113 -2.7376,-0.53371 -0.70166,-0.21647 -1.18685,-0.53184 -1.45183,-0.87148 -0.29111,-0.36204 -0.43666,-0.77445 -0.43666,-1.25777 l 0,-63.27268 c 0,-0.45907 0.12133,-0.89574 0.36387,-1.2335 0.24259,-0.36389 0.65316,-0.65502 1.28389,-0.89573 0.60464,-0.24259 1.40332,-0.41243 2.37184,-0.53373 0.96853,-0.12133 2.17963,-0.16985 3.65573,-0.16985 1.50223,0 2.76185,0.0486 3.75278,0.16985 0.99464,0.12133 1.76908,0.29114 2.30092,0.53373 0.55798,0.24071 0.94427,0.53184 1.16259,0.89573 0.24259,0.33776 0.36389,0.77443 0.36389,1.2335 l 0,7.87129 c 1.64592,-2.34944 3.21906,-4.31073 4.67279,-5.83723 1.47794,-1.54887 2.88128,-2.75998 4.18942,-3.65572 1.33055,-0.89575 2.66297,-1.52462 3.97111,-1.88851 1.33055,-0.3639 2.66294,-0.53184 3.9711,-0.53184 0.62889,0 1.2839,0.0486 1.98555,0.12133 0.72592,0.0466 1.45183,0.16792 2.20388,0.33777 0.7502,0.16985 1.42759,0.3639 1.98371,0.58037 0.58222,0.19407 0.99463,0.43666 1.25962,0.65501 0.24259,0.24259 0.43666,0.50759 0.55798,0.7987 0.12134,0.26686 0.21645,0.65314 0.3135,1.16259 0.0972,0.48333 0.16986,1.23538 0.21834,2.22813 0.0486,0.99279 0.0727,2.34759 0.0727,4.0439 z m 88.32534,25.10864 c 0,5.40056 -0.72591,10.31592 -2.1311,14.77034 -1.42758,4.43206 -3.58295,8.28185 -6.46423,11.47852 -2.8813,3.21905 -6.4885,5.71406 -10.84776,7.457 -4.35926,1.74298 -9.44445,2.61444 -15.25555,2.61444 -5.61702,0 -10.50811,-0.77443 -14.6733,-2.32332 -4.16331,-1.57501 -7.62683,-3.84981 -10.36256,-6.82812 -2.73573,-2.97833 -4.76981,-6.63595 -6.10221,-10.99333 -1.33243,-4.33499 -1.98555,-9.29888 -1.98555,-14.89165 0,-5.40054 0.72591,-10.3159 2.15537,-14.79459 1.45183,-4.45629 3.6072,-8.28184 6.48848,-11.4785 2.90556,-3.19482 6.49038,-5.66554 10.82351,-7.40852 4.335,-1.76719 9.39592,-2.63867 15.23128,-2.63867 5.66554,0 10.5809,0.77444 14.74608,2.29905 4.16519,1.55076 7.60259,3.80129 10.31405,6.77962 2.7376,2.97833 4.74554,6.66018 6.07795,10.99333 1.30815,4.35925 1.98554,9.34738 1.98554,14.9644 z m -18.37754,0.72593 c 0,-3.12203 -0.24259,-6.00518 -0.75205,-8.61962 -0.48332,-2.63869 -1.33055,-4.91535 -2.51739,-6.85239 -1.18685,-1.93703 -2.76,-3.46351 -4.72129,-4.52721 -1.96129,-1.08981 -4.43202,-1.64779 -7.41037,-1.64779 -2.63869,0 -4.96388,0.48519 -6.94943,1.45371 -1.98555,0.96853 -3.6072,2.39611 -4.89111,4.26035 -1.282,1.86613 -2.22626,4.11666 -2.88128,6.73297 -0.62889,2.63869 -0.94426,5.61702 -0.94426,8.98351 0,3.12202 0.24259,5.9809 0.77446,8.61959 0.50943,2.61446 1.35666,4.89111 2.51924,6.85243 1.16259,1.93701 2.73573,3.43737 4.72129,4.50292 1.98555,1.06555 4.43203,1.59928 7.36184,1.59928 2.71148,0 5.03479,-0.50947 7.04647,-1.47798 1.9837,-0.9685 3.60722,-2.37182 4.89112,-4.21369 1.25775,-1.84001 2.202,-4.06629 2.83276,-6.70684 0.60461,-2.61442 0.92,-5.61702 0.92,-8.95924 z"
         style="fill:#d9dbdc;stroke:#2c2c2b;stroke-width:2.85596657" />
      <path
         inkscape:connector-curvature="0"
         id="path3048"
         d="m 790.95316,402.91516 c 0,4.40777 -0.75205,7.36185 -2.30092,8.8622 -1.52463,1.52647 -4.28649,2.27666 -8.2576,2.27666 -3.9711,0 -6.73109,-0.75019 -8.23146,-2.22814 -1.52647,-1.50037 -2.27666,-4.30888 -2.27666,-8.47405 0,-4.4563 0.77444,-7.43462 2.30092,-8.93497 1.54888,-1.5265 4.33313,-2.27669 8.35275,-2.27669 3.9226,0 6.63594,0.75019 8.16056,2.22814 1.50036,1.50224 2.25241,4.33502 2.25241,8.54685 z m 73.57925,-49.58842 c 0,1.71869 -0.0486,3.09961 -0.14547,4.18756 -0.0972,1.08982 -0.24261,1.93704 -0.43481,2.56779 -0.16985,0.60461 -0.43667,1.0413 -0.72778,1.25777 -0.31352,0.24259 -0.70167,0.36389 -1.185,0.36389 -0.3639,0 -0.80056,-0.0727 -1.25962,-0.24259 -0.48519,-0.16987 -1.01703,-0.33777 -1.59928,-0.53184 -0.60461,-0.1941 -1.25776,-0.36391 -1.95941,-0.53373 -0.70353,-0.16985 -1.47797,-0.24073 -2.34947,-0.24073 -0.99275,0 -1.98553,0.19229 -2.97831,0.58036 -0.99277,0.41242 -2.00982,1.0413 -3.07537,1.88853 -1.06555,0.84723 -2.17962,1.98555 -3.34222,3.41499 -1.16073,1.40332 -2.3961,3.1724 -3.72849,5.23073 l 0,39.4442 c 0,0.48332 -0.12134,0.89573 -0.41243,1.25777 -0.28925,0.33964 -0.77444,0.65501 -1.45184,0.87148 -0.70166,0.24258 -1.5974,0.41241 -2.73572,0.53371 -1.13834,0.12133 -2.5678,0.19407 -4.33501,0.19407 -1.74296,0 -3.19667,-0.0727 -4.30888,-0.19407 -1.13833,-0.12134 -2.05833,-0.29113 -2.7376,-0.53371 -0.70166,-0.21647 -1.18685,-0.53184 -1.45183,-0.87148 -0.29111,-0.36204 -0.43666,-0.77445 -0.43666,-1.25777 l 0,-63.27268 c 0,-0.45907 0.12133,-0.89574 0.36387,-1.2335 0.24259,-0.36389 0.65316,-0.65502 1.28389,-0.89573 0.60464,-0.24259 1.40332,-0.41243 2.37184,-0.53373 0.96853,-0.12133 2.17963,-0.16985 3.65573,-0.16985 1.50223,0 2.76185,0.0486 3.75278,0.16985 0.99464,0.12133 1.76908,0.29114 2.30092,0.53373 0.55798,0.24071 0.94427,0.53184 1.16259,0.89573 0.24259,0.33776 0.36389,0.77443 0.36389,1.2335 l 0,7.87129 c 1.64592,-2.34944 3.21906,-4.31073 4.67279,-5.83723 1.47794,-1.54887 2.88128,-2.75998 4.18942,-3.65572 1.33055,-0.89575 2.66297,-1.52462 3.97111,-1.88851 1.33055,-0.3639 2.66294,-0.53184 3.9711,-0.53184 0.62889,0 1.2839,0.0486 1.98555,0.12133 0.72592,0.0466 1.45183,0.16792 2.20388,0.33777 0.7502,0.16985 1.42759,0.3639 1.98371,0.58037 0.58222,0.19407 0.99463,0.43666 1.25962,0.65501 0.24259,0.24259 0.43666,0.50759 0.55798,0.7987 0.12134,0.26686 0.21645,0.65314 0.3135,1.16259 0.0972,0.48333 0.16986,1.23538 0.21834,2.22813 0.0486,0.99279 0.0727,2.34759 0.0727,4.0439 z m 88.32534,25.10864 c 0,5.40056 -0.72591,10.31592 -2.1311,14.77034 -1.42758,4.43206 -3.58295,8.28185 -6.46423,11.47852 -2.8813,3.21905 -6.4885,5.71406 -10.84776,7.457 -4.35926,1.74298 -9.44445,2.61444 -15.25555,2.61444 -5.61702,0 -10.50811,-0.77443 -14.6733,-2.32332 -4.16331,-1.57501 -7.62683,-3.84981 -10.36256,-6.82812 -2.73573,-2.97833 -4.76981,-6.63595 -6.10221,-10.99333 -1.33243,-4.33499 -1.98555,-9.29888 -1.98555,-14.89165 0,-5.40054 0.72591,-10.3159 2.15537,-14.79459 1.45183,-4.45629 3.6072,-8.28184 6.48848,-11.4785 2.90556,-3.19482 6.49038,-5.66554 10.82351,-7.40852 4.335,-1.76719 9.39592,-2.63867 15.23128,-2.63867 5.66554,0 10.5809,0.77444 14.74608,2.29905 4.16519,1.55076 7.60259,3.80129 10.31405,6.77962 2.7376,2.97833 4.74554,6.66018 6.07795,10.99333 1.30815,4.35925 1.98554,9.34738 1.98554,14.9644 z m -18.37754,0.72593 c 0,-3.12203 -0.24259,-6.00518 -0.75205,-8.61962 -0.48332,-2.63869 -1.33055,-4.91535 -2.51739,-6.85239 -1.18685,-1.93703 -2.76,-3.46351 -4.72129,-4.52721 -1.96129,-1.08981 -4.43202,-1.64779 -7.41037,-1.64779 -2.63869,0 -4.96388,0.48519 -6.94943,1.45371 -1.98555,0.96853 -3.6072,2.39611 -4.89111,4.26035 -1.282,1.86613 -2.22626,4.11666 -2.88128,6.73297 -0.62889,2.63869 -0.94426,5.61702 -0.94426,8.98351 0,3.12202 0.24259,5.9809 0.77446,8.61959 0.50943,2.61446 1.35666,4.89111 2.51924,6.85243 1.16259,1.93701 2.73573,3.43737 4.72129,4.50292 1.98555,1.06555 4.43203,1.59928 7.36184,1.59928 2.71148,0 5.03479,-0.50947 7.04647,-1.47798 1.9837,-0.9685 3.60722,-2.37182 4.89112,-4.21369 1.25775,-1.84001 2.202,-4.06629 2.83276,-6.70684 0.60461,-2.61442 0.92,-5.61702 0.92,-8.95924 z"
         style="fill:#93bb00;fill-opacity:1;stroke:#2c2c2b;stroke-width:1.64510679;stroke-linejoin:round;stroke-miterlimit:4;stroke-dasharray:none" />
      <path
         style="fill:#d9dbdc;stroke:#2c2c2b;stroke-width:2.85671306"
         d="m 142.17866,358.93442 c 0,3.41501 -0.77611,6.46613 -2.30092,9.19998 -1.54908,2.71333 -3.92297,5.06279 -7.16684,7.02407 -3.24574,1.95944 -7.36148,3.46165 -12.34887,4.50295 -4.98909,1.0413 -10.94553,1.55075 -17.84683,1.55075 l -6.513879,0 c -0.19278,1.08794 -0.3387,2.17776 -0.43592,3.24331 -0.0955,1.0413 -0.14409,2.03407 -0.14409,2.92982 0,3.82741 0.99166,6.70869 2.97815,8.66813 0.72274,0.70539 1.608969,1.27642 2.652499,1.72615 1.52163,0.50573 3.07723,0.85656 4.65709,1.07862 0.72107,0.0653 1.47778,0.10075 2.27816,0.10075 3.12407,0 5.90944,-0.24074 8.40315,-0.6774 2.46961,-0.45908 4.64886,-0.94426 6.51405,-1.50035 l 1.34642,-0.39376 c 11.99561,-4.26595 23.76915,-12.74002 32.36524,-20.02348 l 6.24163,-31.40121 c 0.0973,-0.45907 0.31443,-0.87333 0.67739,-1.23537 0.36295,-0.36391 0.8961,-0.62889 1.62203,-0.84723 0.75186,-0.21832 1.6948,-0.38814 2.88317,-0.50757 1.18496,-0.12133 2.61442,-0.16985 4.33311,-0.16985 1.74296,0 3.17241,0.0486 4.28648,0.16985 1.11408,0.11932 1.96129,0.28925 2.59017,0.50757 0.60464,0.21834 1.01705,0.48332 1.23538,0.84723 0.21834,0.36204 0.26686,0.7763 0.16792,1.23537 l -1.43876,7.29466 c 14.60612,-19.4935 26.07715,-45.24034 5.48452,-60.13758 -8.68306,-6.27951 -22.15402,-7.18643 -32.16801,-4.50668 -47.87698,12.82022 -86.195539,44.73836 -109.455788,88.1891 -11.58413,21.63955 -10.833948,55.20544 13.748829,67.53678 36.64612,18.38314 78.863189,-9.78968 110.454729,-24.32116 l 0.0635,0.0972 C 134.97932,437.23694 105.84674,462.43145 60.397014,450.33526 22.178869,440.16302 21.858082,399.10089 34.859905,372.29036 63.529112,313.1698 134.88041,268.28773 179.24818,275.43684 c 21.39134,3.44673 31.61768,22.89171 29.64705,40.06188 -2.81784,24.54508 -16.79881,46.03159 -34.87406,63.06179 l -0.87334,4.41898 c -0.2426,1.03944 -0.41055,2.13111 -0.53184,3.26759 -0.12133,1.13832 -0.16985,2.22814 -0.16985,3.26944 0,1.13832 0.097,2.15348 0.31539,3.07537 0.21647,0.94423 0.55609,1.71869 1.01516,2.39796 0.4852,0.65312 1.09169,1.13647 1.8176,1.4761 0.72593,0.33777 1.62168,0.50757 2.66294,0.50757 1.93705,0 3.94687,-0.62702 6.05372,-1.8885 2.10685,-1.25963 4.11666,-2.97833 6.00516,-5.18036 1.88851,-2.20388 3.58296,-4.79406 5.06093,-7.79665 1.50036,-3.00257 2.61443,-6.24776 3.36462,-9.75793 l 5.40056,-27.38719 c 0.0486,-0.45907 0.26684,-0.87335 0.62887,-1.23537 0.38816,-0.36391 0.94611,-0.62889 1.67205,-0.84723 0.75016,-0.21832 1.69442,-0.38814 2.87942,-0.50757 1.18873,-0.12133 2.6163,-0.16985 4.33499,-0.16985 1.74294,0 3.1724,0.0486 4.28649,0.16985 1.11407,0.11932 1.98554,0.28925 2.61442,0.50757 0.65501,0.21834 1.06744,0.48332 1.25962,0.84723 0.16985,0.36202 0.21836,0.7763 0.12134,1.23537 l -12.68963,63.41638 c -0.0952,0.48332 -0.28925,0.89572 -0.60277,1.25963 -0.31537,0.33962 -0.7763,0.62887 -1.40519,0.84722 -0.65314,0.21833 -1.4761,0.36388 -2.47074,0.48333 -0.99277,0.12133 -2.20389,0.19407 -3.67997,0.19407 -1.45186,0 -2.66296,-0.0727 -3.58296,-0.19407 -0.92,-0.11933 -1.64591,-0.265 -2.15537,-0.48333 -0.53371,-0.21835 -0.87148,-0.5076 -1.0413,-0.84722 -0.14547,-0.36391 -0.16985,-0.77631 -0.0241,-1.25963 l 1.91278,-10.26741 c -0.94427,1.64779 -2.25244,3.31798 -3.89835,4.99 -1.67017,1.67019 -3.56054,3.21908 -5.71591,4.59999 -2.15351,1.40333 -4.4787,2.5174 -6.99609,3.38888 -2.49314,0.84723 -5.08518,1.25963 -7.72387,1.25963 -3.31985,0 -6.10277,-0.46092 -8.40371,-1.38091 -2.29924,-0.91813 -4.13998,-2.17778 -5.5448,-3.75278 -1.38055,-1.57315 -2.39665,-3.48779 -3.0513,-5.71406 -0.59453,-2.10499 -0.90898,-4.36671 -0.94126,-6.81508 -2.56518,1.7579 -5.15442,3.44113 -7.75841,5.03292 -7.73412,4.73248 -15.68995,8.38822 -23.5829,10.37377 -0.78751,0.21648 -1.63659,0.42922 -2.53737,0.63449 -2.13091,0.48332 -4.5274,0.87148 -7.16702,1.16073 -2.63945,0.31725 -5.35204,0.46092 -8.08721,0.46092 -4.55333,0 -8.498869,-0.46092 -11.888679,-1.40518 -3.36704,-0.94241 -6.19944,-2.3961 -8.4761,-4.33313 -2.275,-1.93703 -3.97,-4.40778 -5.10907,-7.41037 -1.1374,-3.00259 -1.6948,-6.56127 -1.6948,-10.67794 0,-3.1724 0.29166,-6.56129 0.87166,-10.16849 0.60611,-3.63333 1.55075,-7.19389 2.8811,-10.72833 1.33185,-3.51017 3.02685,-6.87666 5.11056,-10.09758 2.08221,-3.21905 4.60017,-6.05368 7.55424,-8.47405 2.95388,-2.44462 6.367959,-4.40777 10.242389,-5.85961 3.89851,-1.47798 8.3059,-2.20389 13.26904,-2.20389 4.31018,0 8.01445,0.50945 11.11425,1.52463 3.09962,1.01889 5.64203,2.37369 7.62703,4.04573 1.98649,1.67018 3.46276,3.60534 4.43165,5.73646 0.96907,2.15536 1.45352,4.3835 1.45352,6.63594 z m -17.53072,1.35668 c 0,-1.89039 -0.75184,-3.46353 -2.22815,-4.72129 -1.50204,-1.25962 -3.65704,-1.86612 -6.48943,-1.86612 -2.37389,0 -4.48036,0.41241 -6.34386,1.25964 -1.86502,0.84721 -3.5113,2.00792 -4.94057,3.43738 -1.42739,1.4537 -2.63943,3.14815 -3.65554,5.10945 -1.017399,1.96316 -1.816299,4.06813 -2.446659,6.29627 l 5.958149,0 c 3.77701,0 6.94812,-0.26684 9.51477,-0.75205 2.54242,-0.50757 4.60186,-1.18496 6.17519,-2.03219 1.54906,-0.84723 2.68814,-1.84185 3.38981,-3.0026 0.72591,-1.16259 1.06629,-2.3961 1.06629,-3.72849 z"
         id="path3050"
         inkscape:connector-curvature="0" />
      <path
         style="fill:#93bb00;fill-opacity:1;stroke:#2c2c2b;stroke-width:1.64510679;stroke-linecap:round;stroke-linejoin:round;stroke-miterlimit:4;stroke-dasharray:none"
         d="m 142.17866,358.93442 c 0,3.41501 -0.77611,6.46613 -2.30092,9.19998 -1.54908,2.71333 -3.92297,5.06279 -7.16684,7.02407 -3.24574,1.95944 -7.36148,3.46165 -12.34887,4.50295 -4.98909,1.0413 -10.94553,1.55075 -17.84683,1.55075 l -6.513879,0 c -0.19278,1.08794 -0.3387,2.17776 -0.43592,3.24331 -0.0955,1.0413 -0.14409,2.03407 -0.14409,2.92982 0,3.82741 0.99166,6.70869 2.97815,8.66813 0.72274,0.70539 1.608969,1.27642 2.652499,1.72615 1.52163,0.50573 3.07723,0.85656 4.65709,1.07862 0.72107,0.0653 1.47778,0.10075 2.27816,0.10075 3.12407,0 5.90944,-0.24074 8.40315,-0.6774 2.46961,-0.45908 4.64886,-0.94426 6.51405,-1.50035 l 1.34642,-0.39376 c 11.99561,-4.26595 23.76915,-12.74002 32.36524,-20.02348 l 6.24163,-31.40121 c 0.0973,-0.45907 0.31443,-0.87333 0.67739,-1.23537 0.36295,-0.36391 0.8961,-0.62889 1.62203,-0.84723 0.75186,-0.21832 1.6948,-0.38814 2.88317,-0.50757 1.18496,-0.12133 2.61442,-0.16985 4.33311,-0.16985 1.74296,0 3.17241,0.0486 4.28648,0.16985 1.11408,0.11932 1.96129,0.28925 2.59017,0.50757 0.60464,0.21834 1.01705,0.48332 1.23538,0.84723 0.21834,0.36204 0.26686,0.7763 0.16792,1.23537 l -1.43876,7.29466 c 14.60612,-19.4935 26.07715,-45.24034 5.48452,-60.13758 -8.68306,-6.27951 -22.15402,-7.18643 -32.16801,-4.50668 -47.87698,12.82022 -86.195539,44.73836 -109.455788,88.1891 -11.58413,21.63955 -10.833948,55.20544 13.748829,67.53678 36.64612,18.38314 78.863189,-9.78968 110.454729,-24.32116 l 0.0635,0.0972 C 134.97932,437.23694 105.84674,462.43145 60.397014,450.33526 22.178869,440.16302 21.858082,399.10089 34.859905,372.29036 63.529112,313.1698 134.88041,268.28773 179.24818,275.43684 c 21.39134,3.44673 31.61768,22.89171 29.64705,40.06188 -2.81784,24.54508 -16.79881,46.03159 -34.87406,63.06179 l -0.87334,4.41898 c -0.2426,1.03944 -0.41055,2.13111 -0.53184,3.26759 -0.12133,1.13832 -0.16985,2.22814 -0.16985,3.26944 0,1.13832 0.097,2.15348 0.31539,3.07537 0.21647,0.94423 0.55609,1.71869 1.01516,2.39796 0.4852,0.65312 1.09169,1.13647 1.8176,1.4761 0.72593,0.33777 1.62168,0.50757 2.66294,0.50757 1.93705,0 3.94687,-0.62702 6.05372,-1.8885 2.10685,-1.25963 4.11666,-2.97833 6.00516,-5.18036 1.88851,-2.20388 3.58296,-4.79406 5.06093,-7.79665 1.50036,-3.00257 2.61443,-6.24776 3.36462,-9.75793 l 5.40056,-27.38719 c 0.0486,-0.45907 0.26684,-0.87335 0.62887,-1.23537 0.38816,-0.36391 0.94611,-0.62889 1.67205,-0.84723 0.75016,-0.21832 1.69442,-0.38814 2.87942,-0.50757 1.18873,-0.12133 2.6163,-0.16985 4.33499,-0.16985 1.74294,0 3.1724,0.0486 4.28649,0.16985 1.11407,0.11932 1.98554,0.28925 2.61442,0.50757 0.65501,0.21834 1.06744,0.48332 1.25962,0.84723 0.16985,0.36202 0.21836,0.7763 0.12134,1.23537 l -12.68963,63.41638 c -0.0952,0.48332 -0.28925,0.89572 -0.60277,1.25963 -0.31537,0.33962 -0.7763,0.62887 -1.40519,0.84722 -0.65314,0.21833 -1.4761,0.36388 -2.47074,0.48333 -0.99277,0.12133 -2.20389,0.19407 -3.67997,0.19407 -1.45186,0 -2.66296,-0.0727 -3.58296,-0.19407 -0.92,-0.11933 -1.64591,-0.265 -2.15537,-0.48333 -0.53371,-0.21835 -0.87148,-0.5076 -1.0413,-0.84722 -0.14547,-0.36391 -0.16985,-0.77631 -0.0241,-1.25963 l 1.91278,-10.26741 c -0.94427,1.64779 -2.25244,3.31798 -3.89835,4.99 -1.67017,1.67019 -3.56054,3.21908 -5.71591,4.59999 -2.15351,1.40333 -4.4787,2.5174 -6.99609,3.38888 -2.49314,0.84723 -5.08518,1.25963 -7.72387,1.25963 -3.31985,0 -6.10277,-0.46092 -8.40371,-1.38091 -2.29924,-0.91813 -4.13998,-2.17778 -5.5448,-3.75278 -1.38055,-1.57315 -2.39665,-3.48779 -3.0513,-5.71406 -0.59453,-2.10499 -0.90898,-4.36671 -0.94126,-6.81508 -2.56518,1.7579 -5.15442,3.44113 -7.75841,5.03292 -7.73412,4.73248 -15.68995,8.38822 -23.5829,10.37377 -0.78751,0.21648 -1.63659,0.42922 -2.53737,0.63449 -2.13091,0.48332 -4.5274,0.87148 -7.16702,1.16073 -2.63945,0.31725 -5.35204,0.46092 -8.08721,0.46092 -4.55333,0 -8.498869,-0.46092 -11.888679,-1.40518 -3.36704,-0.94241 -6.19944,-2.3961 -8.4761,-4.33313 -2.275,-1.93703 -3.97,-4.40778 -5.10907,-7.41037 -1.1374,-3.00259 -1.6948,-6.56127 -1.6948,-10.67794 0,-3.1724 0.29166,-6.56129 0.87166,-10.16849 0.60611,-3.63333 1.55075,-7.19389 2.8811,-10.72833 1.33185,-3.51017 3.02685,-6.87666 5.11056,-10.09758 2.08221,-3.21905 4.60017,-6.05368 7.55424,-8.47405 2.95388,-2.44462 6.367959,-4.40777 10.242389,-5.85961 3.89851,-1.47798 8.3059,-2.20389 13.26904,-2.20389 4.31018,0 8.01445,0.50945 11.11425,1.52463 3.09962,1.01889 5.64203,2.37369 7.62703,4.04573 1.98649,1.67018 3.46276,3.60534 4.43165,5.73646 0.96907,2.15536 1.45352,4.3835 1.45352,6.63594 z m -17.53072,1.35668 c 0,-1.89039 -0.75184,-3.46353 -2.22815,-4.72129 -1.50204,-1.25962 -3.65704,-1.86612 -6.48943,-1.86612 -2.37389,0 -4.48036,0.41241 -6.34386,1.25964 -1.86502,0.84721 -3.5113,2.00792 -4.94057,3.43738 -1.42739,1.4537 -2.63943,3.14815 -3.65554,5.10945 -1.017399,1.96316 -1.816299,4.06813 -2.446659,6.29627 l 5.958149,0 c 3.77701,0 6.94812,-0.26684 9.51477,-0.75205 2.54242,-0.50757 4.60186,-1.18496 6.17519,-2.03219 1.54906,-0.84723 2.68814,-1.84185 3.38981,-3.0026 0.72591,-1.16259 1.06629,-2.3961 1.06629,-3.72849 z"
         id="path3052"
         inkscape:connector-curvature="0" />
      <g
         style="font-size:61.90687943px;font-style:normal;font-variant:normal;font-weight:bold;font-stretch:normal;line-height:125%;letter-spacing:0.8493644px;word-spacing:0px;fill:#800000;fill-opacity:1;stroke:none;font-family:Arial;-inkscape-font-specification:Arial Bold"
         id="text3082">
        <path
           d="m 585.87914,289.37923 16.51354,0 0,4.25761 -10.33796,0 0,3.1694 9.58982,0 0,4.06717 -9.58982,0 0,3.93115 10.63722,0 0,4.51606 -16.8128,0 z"
           style="font-size:27.85809708px;font-weight:900;text-align:start;line-height:125%;writing-mode:lr-tb;text-anchor:start;fill:#800000;font-family:Arial Black;-inkscape-font-specification:'Arial Black, Heavy'"
           id="path11392" />
        <path
           d="m 604.90156,289.37923 6.44763,0 4.48885,14.35072 4.42084,-14.35072 6.25719,0 -7.3998,19.94139 -6.67887,0 z"
           style="font-size:27.85809708px;font-weight:900;text-align:start;line-height:125%;writing-mode:lr-tb;text-anchor:start;fill:#800000;font-family:Arial Black;-inkscape-font-specification:'Arial Black, Heavy'"
           id="path11394" />
        <path
           d="m 628.60327,299.36352 c 0,-3.25553 0.90684,-5.79015 2.72052,-7.60384 1.81367,-1.81366 4.33921,-2.7205 7.57664,-2.72052 3.31901,2e-5 5.8763,0.89099 7.67186,2.67291 1.79552,1.78195 2.69329,4.27803 2.69331,7.48822 -2e-5,2.33059 -0.39223,4.24175 -1.17662,5.73349 -0.78444,1.49176 -1.91799,2.65251 -3.40065,3.48227 -1.4827,0.82975 -3.33038,1.24463 -5.54305,1.24463 -2.24898,0 -4.11026,-0.3582 -5.58387,-1.0746 -1.47361,-0.7164 -2.66837,-1.84995 -3.58428,-3.40065 -0.91591,-1.55069 -1.37386,-3.49132 -1.37386,-5.82191 z m 6.16197,0.0272 c -10e-6,2.01319 0.37407,3.4596 1.12222,4.33922 0.74813,0.87964 1.76605,1.31946 3.05378,1.31946 1.32397,0 2.3487,-0.43075 3.07418,-1.29225 0.72546,-0.86149 1.08819,-2.40765 1.08821,-4.63848 -2e-5,-1.87715 -0.37862,-3.24874 -1.13582,-4.11478 -0.75722,-0.86602 -1.78422,-1.29904 -3.08098,-1.29905 -1.24238,10e-6 -2.23991,0.43983 -2.99257,1.31945 -0.75269,0.87965 -1.12903,2.33512 -1.12902,4.36643 z"
           style="font-size:27.85809708px;font-weight:900;text-align:start;line-height:125%;writing-mode:lr-tb;text-anchor:start;fill:#800000;font-family:Arial Black;-inkscape-font-specification:'Arial Black, Heavy'"
           id="path11396" />
        <path
           d="m 653.4612,289.37923 6.16197,0 0,15.03085 9.61703,0 0,4.91054 -15.779,0 z"
           style="font-size:27.85809708px;font-weight:900;text-align:start;line-height:125%;writing-mode:lr-tb;text-anchor:start;fill:#800000;font-family:Arial Black;-inkscape-font-specification:'Arial Black, Heavy'"
           id="path11398" />
        <path
           d="m 670.94653,289.37923 6.44763,0 4.48885,14.35072 4.42084,-14.35072 6.25719,0 -7.39981,19.94139 -6.67887,0 z"
           style="font-size:27.85809708px;font-weight:900;text-align:start;line-height:125%;writing-mode:lr-tb;text-anchor:start;fill:#800000;font-family:Arial Black;-inkscape-font-specification:'Arial Black, Heavy'"
           id="path11400" />
        <path
           d="m 695.40998,289.37923 16.51354,0 0,4.25761 -10.33797,0 0,3.1694 9.58983,0 0,4.06717 -9.58983,0 0,3.93115 10.63723,0 0,4.51606 -16.8128,0 z"
           style="font-size:27.85809708px;font-weight:900;text-align:start;line-height:125%;writing-mode:lr-tb;text-anchor:start;fill:#800000;font-family:Arial Black;-inkscape-font-specification:'Arial Black, Heavy'"
           id="path11402" />
        <path
           d="m 716.4864,289.37923 9.15454,0 c 1.8046,2e-5 3.26234,0.24486 4.37323,0.73454 1.11086,0.48971 2.02904,1.19251 2.75452,2.1084 0.72546,0.91592 1.25142,1.98146 1.5779,3.1966 0.32645,1.21518 0.48968,2.50289 0.4897,3.86314 -2e-5,2.13108 -0.2426,3.78379 -0.72774,4.95814 -0.48518,1.17436 -1.15851,2.15828 -2.01998,2.95176 -0.86152,0.79349 -1.78649,1.32172 -2.77493,1.5847 -1.35121,0.36274 -2.57544,0.54411 -3.6727,0.54411 l -9.15454,0 z m 6.16197,4.51605 0,10.89568 1.50989,0 c 1.2877,0 2.2036,-0.14283 2.74772,-0.42849 0.54409,-0.28564 0.9703,-0.78441 1.27864,-1.49628 0.30831,-0.71186 0.46248,-1.86581 0.46249,-3.46186 -10e-6,-2.11292 -0.34461,-3.55933 -1.0338,-4.33922 -0.68921,-0.77987 -1.83182,-1.16981 -3.42785,-1.16983 z"
           style="font-size:27.85809708px;font-weight:900;text-align:start;line-height:125%;writing-mode:lr-tb;text-anchor:start;fill:#800000;font-family:Arial Black;-inkscape-font-specification:'Arial Black, Heavy'"
           id="path11404" />
        <path
           d="m 749.04938,289.37923 16.51354,0 0,4.25761 -10.33796,0 0,3.1694 9.58982,0 0,4.06717 -9.58982,0 0,3.93115 10.63722,0 0,4.51606 -16.8128,0 z"
           style="font-size:27.85809708px;font-weight:900;text-align:start;line-height:125%;writing-mode:lr-tb;text-anchor:start;fill:#800000;font-family:Arial Black;-inkscape-font-specification:'Arial Black, Heavy'"
           id="path11406" />
        <path
           d="m 783.32031,301.17267 5.40023,1.63231 c -0.36276,1.51443 -0.93407,2.77946 -1.71393,3.79512 -0.7799,1.01566 -1.74795,1.78194 -2.90415,2.29884 -1.15623,0.5169 -2.62758,0.77534 -4.41404,0.77534 -2.16735,0 -3.93796,-0.31512 -5.31181,-0.94537 -1.37387,-0.63026 -2.55956,-1.73887 -3.55708,-3.32584 -0.99752,-1.58696 -1.49628,-3.61828 -1.49628,-6.09396 0,-3.30088 0.87736,-5.83776 2.6321,-7.61064 1.75473,-1.77285 4.2372,-2.65929 7.44742,-2.65931 2.51193,2e-5 4.48657,0.50785 5.92392,1.52349 1.43732,1.01568 2.50513,2.57544 3.20341,4.67929 l -5.44103,1.21063 c -0.19045,-0.60757 -0.38996,-1.05192 -0.59852,-1.33305 -0.34461,-0.47154 -0.76629,-0.83428 -1.26504,-1.08821 -0.49877,-0.2539 -1.05648,-0.38086 -1.67311,-0.38087 -1.39655,10e-6 -2.46662,0.56225 -3.21022,1.68672 -0.56224,0.8343 -0.84336,2.14469 -0.84336,3.93115 0,2.21269 0.33553,3.72938 1.0066,4.55006 0.67105,0.8207 1.61416,1.23104 2.82933,1.23104 1.17888,0 2.06985,-0.331 2.67291,-0.99299 0.60304,-0.66199 1.04059,-1.62324 1.31265,-2.88375 z"
           style="font-size:27.85809708px;font-weight:900;text-align:start;line-height:125%;writing-mode:lr-tb;text-anchor:start;fill:#800000;font-family:Arial Black;-inkscape-font-specification:'Arial Black, Heavy'"
           id="path11408" />
        <path
           d="m 791.77352,299.36352 c 0,-3.25553 0.90684,-5.79015 2.72052,-7.60384 1.81367,-1.81366 4.33922,-2.7205 7.57664,-2.72052 3.31902,2e-5 5.8763,0.89099 7.67186,2.67291 1.79552,1.78195 2.69329,4.27803 2.69331,7.48822 -2e-5,2.33059 -0.39223,4.24175 -1.17662,5.73349 -0.78444,1.49176 -1.91798,2.65251 -3.40065,3.48227 -1.48269,0.82975 -3.33038,1.24463 -5.54305,1.24463 -2.24897,0 -4.11026,-0.3582 -5.58386,-1.0746 -1.47362,-0.7164 -2.66838,-1.84995 -3.58428,-3.40065 -0.91591,-1.55069 -1.37387,-3.49132 -1.37387,-5.82191 z m 6.16198,0.0272 c -1e-5,2.01319 0.37406,3.4596 1.12221,4.33922 0.74813,0.87964 1.76606,1.31946 3.05378,1.31946 1.32397,0 2.3487,-0.43075 3.07418,-1.29225 0.72546,-0.86149 1.0882,-2.40765 1.08821,-4.63848 -10e-6,-1.87715 -0.37862,-3.24874 -1.13581,-4.11478 -0.75723,-0.86602 -1.78422,-1.29904 -3.08099,-1.29905 -1.24238,10e-6 -2.2399,0.43983 -2.99257,1.31945 -0.75268,0.87965 -1.12902,2.33512 -1.12901,4.36643 z"
           style="font-size:27.85809708px;font-weight:900;text-align:start;line-height:125%;writing-mode:lr-tb;text-anchor:start;fill:#800000;font-family:Arial Black;-inkscape-font-specification:'Arial Black, Heavy'"
           id="path11410" />
        <path
           d="m 816.56344,289.37923 8.10714,0 3.1286,12.1335 3.11499,-12.1335 8.07993,0 0,19.94139 -5.03295,0 0,-15.20769 -3.90394,15.20769 -4.55687,0 -3.89034,-15.20769 0,15.20769 -5.04656,0 z"
           style="font-size:27.85809708px;font-weight:900;text-align:start;line-height:125%;writing-mode:lr-tb;text-anchor:start;fill:#800000;font-family:Arial Black;-inkscape-font-specification:'Arial Black, Heavy'"
           id="path11412" />
        <path
           d="m 843.69299,289.37923 8.10714,0 3.12859,12.1335 3.115,-12.1335 8.07993,0 0,19.94139 -5.03296,0 0,-15.20769 -3.90394,15.20769 -4.55686,0 -3.89034,-15.20769 0,15.20769 -5.04656,0 z"
           style="font-size:27.85809708px;font-weight:900;text-align:start;line-height:125%;writing-mode:lr-tb;text-anchor:start;fill:#800000;font-family:Arial Black;-inkscape-font-specification:'Arial Black, Heavy'"
           id="path11414" />
        <path
           d="m 870.87697,289.37923 16.51354,0 0,4.25761 -10.33796,0 0,3.1694 9.58982,0 0,4.06717 -9.58982,0 0,3.93115 10.63722,0 0,4.51606 -16.8128,0 z"
           style="font-size:27.85809708px;font-weight:900;text-align:start;line-height:125%;writing-mode:lr-tb;text-anchor:start;fill:#800000;font-family:Arial Black;-inkscape-font-specification:'Arial Black, Heavy'"
           id="path11416" />
        <path
           d="m 891.95336,309.32062 0,-19.94139 10.26996,0 c 1.90434,2e-5 3.35982,0.16325 4.36643,0.48969 1.00657,0.32648 1.81819,0.93179 2.43486,1.81594 0.61663,0.88419 0.92496,1.96106 0.92498,3.23062 -2e-5,1.10636 -0.2358,2.0608 -0.70734,2.86334 -0.47157,0.80257 -1.11996,1.45322 -1.94517,1.95197 -0.52598,0.31741 -1.24692,0.58039 -2.16281,0.78895 0.73452,0.24486 1.26956,0.48971 1.6051,0.73454 0.2267,0.16324 0.55543,0.51238 0.98619,1.0474 0.43073,0.53504 0.71865,0.94766 0.86377,1.23784 l 2.97896,5.7811 -6.96452,0 -3.29183,-6.09396 c -0.41715,-0.78894 -0.78896,-1.30131 -1.11541,-1.53709 -0.44436,-0.30832 -0.94766,-0.46248 -1.50989,-0.46249 l -0.5441,0 0,8.09354 z m 6.18918,-11.86146 2.59809,0 c 0.28111,10e-6 0.82522,-0.0907 1.63231,-0.27205 0.40807,-0.0816 0.74133,-0.29018 0.99979,-0.62572 0.25844,-0.33552 0.38766,-0.72092 0.38768,-1.15622 -2e-5,-0.64384 -0.20405,-1.13807 -0.61212,-1.48268 -0.40809,-0.34458 -1.17437,-0.51688 -2.29884,-0.5169 l -2.70691,0 z"
           style="font-size:27.85809708px;font-weight:900;text-align:start;line-height:125%;writing-mode:lr-tb;text-anchor:start;fill:#800000;font-family:Arial Black;-inkscape-font-specification:'Arial Black, Heavy'"
           id="path11418" />
        <path
           d="m 927.65257,301.17267 5.40023,1.63231 c -0.36276,1.51443 -0.93407,2.77946 -1.71393,3.79512 -0.7799,1.01566 -1.74795,1.78194 -2.90415,2.29884 -1.15623,0.5169 -2.62758,0.77534 -4.41404,0.77534 -2.16735,0 -3.93796,-0.31512 -5.31181,-0.94537 -1.37386,-0.63026 -2.55956,-1.73887 -3.55708,-3.32584 -0.99752,-1.58696 -1.49628,-3.61828 -1.49628,-6.09396 0,-3.30088 0.87737,-5.83776 2.6321,-7.61064 1.75473,-1.77285 4.2372,-2.65929 7.44742,-2.65931 2.51193,2e-5 4.48657,0.50785 5.92392,1.52349 1.43732,1.01568 2.50513,2.57544 3.20341,4.67929 l -5.44103,1.21063 c -0.19045,-0.60757 -0.38996,-1.05192 -0.59852,-1.33305 -0.34461,-0.47154 -0.76629,-0.83428 -1.26504,-1.08821 -0.49877,-0.2539 -1.05648,-0.38086 -1.67311,-0.38087 -1.39655,10e-6 -2.46662,0.56225 -3.21021,1.68672 -0.56225,0.8343 -0.84337,2.14469 -0.84337,3.93115 0,2.21269 0.33553,3.72938 1.0066,4.55006 0.67105,0.8207 1.61416,1.23104 2.82933,1.23104 1.17888,0 2.06985,-0.331 2.67291,-0.99299 0.60304,-0.66199 1.04059,-1.62324 1.31265,-2.88375 z"
           style="font-size:27.85809708px;font-weight:900;text-align:start;line-height:125%;writing-mode:lr-tb;text-anchor:start;fill:#800000;font-family:Arial Black;-inkscape-font-specification:'Arial Black, Heavy'"
           id="path11420" />
        <path
           d="m 936.86751,289.37923 16.51354,0 0,4.25761 -10.33796,0 0,3.1694 9.58982,0 0,4.06717 -9.58982,0 0,3.93115 10.63722,0 0,4.51606 -16.8128,0 z"
           style="font-size:27.85809708px;font-weight:900;text-align:start;line-height:125%;writing-mode:lr-tb;text-anchor:start;fill:#800000;font-family:Arial Black;-inkscape-font-specification:'Arial Black, Heavy'"
           id="path11422" />
      </g>
      <g
         transform="matrix(1.9345238,0,0,1.9345238,-83.435708,-231.28144)"
         id="g3086">
        <g
           id="g3088"
           transform="translate(-0.59308768,0)">
          <path
             inkscape:connector-curvature="0"
             id="path3090"
             d="m 331.81099,271.36934 5.85956,0 0,5.85955 -5.85956,0 0,-5.85955 z"
             style="fill:none;stroke:#800000;stroke-width:2.03151178" />
        </g>
        <g
           transform="translate(7.2979841,0)"
           id="g3092" />
      </g>
      <g
         style="stroke:#808000"
         id="g3230"
         transform="matrix(1.9345238,0,0,1.9345238,-442.58374,-84.772597)">
        <g
           style="stroke:#808000"
           transform="translate(-0.59308768,0)"
           id="g3232">
          <path
             style="fill:none;stroke:#808000;stroke-width:2.03151178"
             d="m 331.81099,271.36934 5.85956,0 0,5.85955 -5.85956,0 0,-5.85955 z"
             id="path3234"
             inkscape:connector-curvature="0" />
        </g>
        <g
           style="stroke:#808000"
           id="g3236"
           transform="translate(7.2979841,0)" />
      </g>
      <g
         transform="matrix(1.9345238,0,0,1.9345238,-414.06895,-84.7726)"
         id="g4012"
         style="stroke:#808000">
        <g
           id="g4014"
           transform="translate(-0.59308768,0)"
           style="stroke:#808000">
          <path
             inkscape:connector-curvature="0"
             id="path4016"
             d="m 331.81099,271.36934 5.85956,0 0,5.85955 -5.85956,0 0,-5.85955 z"
             style="fill:none;stroke:#808000;stroke-width:2.03151178" />
        </g>
        <g
           transform="translate(7.2979841,0)"
           id="g4018"
           style="stroke:#808000" />
      </g>
      <g
         style="stroke:#808000"
         id="g4020"
         transform="matrix(1.9345238,0,0,1.9345238,-385.55416,-84.7726)">
        <g
           style="stroke:#808000"
           transform="translate(-0.59308768,0)"
           id="g4022">
          <path
             style="fill:none;stroke:#808000;stroke-width:2.03151178"
             d="m 331.81099,271.36934 5.85956,0 0,5.85955 -5.85956,0 0,-5.85955 z"
             id="path4024"
             inkscape:connector-curvature="0" />
        </g>
        <g
           style="stroke:#808000"
           id="g4026"
           transform="translate(7.2979841,0)" />
      </g>
      <g
         transform="matrix(1.9345238,0,0,1.9345238,-357.03937,-84.7726)"
         id="g4028"
         style="stroke:#808000">
        <g
           id="g4030"
           transform="translate(-0.59308768,0)"
           style="stroke:#808000">
          <path
             inkscape:connector-curvature="0"
             id="path4032"
             d="m 331.81099,271.36934 5.85956,0 0,5.85955 -5.85956,0 0,-5.85955 z"
             style="fill:none;stroke:#808000;stroke-width:2.03151178" />
        </g>
        <g
           transform="translate(7.2979841,0)"
           id="g4034"
           style="stroke:#808000" />
      </g>
      <g
         style="stroke:#808000"
         id="g4036"
         transform="matrix(1.9345238,0,0,1.9345238,-328.52457,-84.7726)">
        <g
           style="stroke:#808000"
           transform="translate(-0.59308768,0)"
           id="g4038">
          <path
             style="fill:none;stroke:#808000;stroke-width:2.03151178"
             d="m 331.81099,271.36934 5.85956,0 0,5.85955 -5.85956,0 0,-5.85955 z"
             id="path4040"
             inkscape:connector-curvature="0" />
        </g>
        <g
           style="stroke:#808000"
           id="g4042"
           transform="translate(7.2979841,0)" />
      </g>
      <g
         transform="matrix(1.9345238,0,0,1.9345238,-300.0098,-84.7726)"
         id="g4044"
         style="stroke:#808000">
        <g
           id="g4046"
           transform="translate(-0.59308768,0)"
           style="stroke:#808000">
          <path
             inkscape:connector-curvature="0"
             id="path4048"
             d="m 331.81099,271.36934 5.85956,0 0,5.85955 -5.85956,0 0,-5.85955 z"
             style="fill:none;stroke:#808000;stroke-width:2.03151178" />
        </g>
        <g
           transform="translate(7.2979841,0)"
           id="g4050"
           style="stroke:#808000" />
      </g>
      <g
         style="stroke:#808000"
         id="g4052"
         transform="matrix(1.9345238,0,0,1.9345238,-271.49501,-84.7726)">
        <g
           style="stroke:#808000"
           transform="translate(-0.59308768,0)"
           id="g4054">
          <path
             style="fill:none;stroke:#808000;stroke-width:2.03151178"
             d="m 331.81099,271.36934 5.85956,0 0,5.85955 -5.85956,0 0,-5.85955 z"
             id="path4056"
             inkscape:connector-curvature="0" />
        </g>
        <g
           style="stroke:#808000"
           id="g4058"
           transform="translate(7.2979841,0)" />
      </g>
      <g
         transform="matrix(1.9345238,0,0,1.9345238,-242.98021,-84.7726)"
         id="g4060"
         style="stroke:#808000">
        <g
           id="g4062"
           transform="translate(-0.59308768,0)"
           style="stroke:#808000">
          <path
             inkscape:connector-curvature="0"
             id="path4064"
             d="m 331.81099,271.36934 5.85956,0 0,5.85955 -5.85956,0 0,-5.85955 z"
             style="fill:none;stroke:#808000;stroke-width:2.03151178" />
        </g>
        <g
           transform="translate(7.2979841,0)"
           id="g4066"
           style="stroke:#808000" />
      </g>
      <g
         style="stroke:#808000"
         id="g4068"
         transform="matrix(1.9345238,0,0,1.9345238,-214.46544,-84.7726)">
        <g
           style="stroke:#808000"
           transform="translate(-0.59308768,0)"
           id="g4070">
          <path
             style="fill:none;stroke:#808000;stroke-width:2.03151178"
             d="m 331.81099,271.36934 5.85956,0 0,5.85955 -5.85956,0 0,-5.85955 z"
             id="path4072"
             inkscape:connector-curvature="0" />
        </g>
        <g
           style="stroke:#808000"
           id="g4074"
           transform="translate(7.2979841,0)" />
      </g>
      <g
         transform="matrix(1.9345238,0,0,1.9345238,-185.95064,-84.7726)"
         id="g4076"
         style="stroke:#808000">
        <g
           id="g4078"
           transform="translate(-0.59308768,0)"
           style="stroke:#808000">
          <path
             inkscape:connector-curvature="0"
             id="path4080"
             d="m 331.81099,271.36934 5.85956,0 0,5.85955 -5.85956,0 0,-5.85955 z"
             style="fill:none;stroke:#808000;stroke-width:2.03151178" />
        </g>
        <g
           transform="translate(7.2979841,0)"
           id="g4082"
           style="stroke:#808000" />
      </g>
      <g
         style="stroke:#808000"
         id="g4084"
         transform="matrix(1.9345238,0,0,1.9345238,-157.43585,-84.7726)">
        <g
           style="stroke:#808000"
           transform="translate(-0.59308768,0)"
           id="g4086">
          <path
             style="fill:none;stroke:#808000;stroke-width:2.03151178"
             d="m 331.81099,271.36934 5.85956,0 0,5.85955 -5.85956,0 0,-5.85955 z"
             id="path4088"
             inkscape:connector-curvature="0" />
        </g>
        <g
           style="stroke:#808000"
           id="g4090"
           transform="translate(7.2979841,0)" />
      </g>
      <g
         transform="matrix(1.9345238,0,0,1.9345238,-128.92109,-84.7726)"
         id="g4092"
         style="stroke:#808000">
        <g
           id="g4094"
           transform="translate(-0.59308768,0)"
           style="stroke:#808000">
          <path
             inkscape:connector-curvature="0"
             id="path4096"
             d="m 331.81099,271.36934 5.85956,0 0,5.85955 -5.85956,0 0,-5.85955 z"
             style="fill:none;stroke:#808000;stroke-width:2.03151178" />
        </g>
        <g
           transform="translate(7.2979841,0)"
           id="g4098"
           style="stroke:#808000" />
      </g>
      <g
         style="stroke:#808000"
         id="g4100"
         transform="matrix(1.9345238,0,0,1.9345238,-100.40625,-84.7726)">
        <g
           style="stroke:#808000"
           transform="translate(-0.59308768,0)"
           id="g4102">
          <path
             style="fill:none;stroke:#808000;stroke-width:2.03151178"
             d="m 331.81099,271.36934 5.85956,0 0,5.85955 -5.85956,0 0,-5.85955 z"
             id="path4104"
             inkscape:connector-curvature="0" />
        </g>
        <g
           style="stroke:#808000"
           id="g4106"
           transform="translate(7.2979841,0)" />
      </g>
      <g
         transform="matrix(1.9345238,0,0,1.9345238,-71.891487,-84.7726)"
         id="g4108"
         style="stroke:#808000">
        <g
           id="g4110"
           transform="translate(-0.59308768,0)"
           style="stroke:#808000">
          <path
             inkscape:connector-curvature="0"
             id="path4112"
             d="m 331.81099,271.36934 5.85956,0 0,5.85955 -5.85956,0 0,-5.85955 z"
             style="fill:none;stroke:#808000;stroke-width:2.03151178" />
        </g>
        <g
           transform="translate(7.2979841,0)"
           id="g4114"
           style="stroke:#808000" />
      </g>
      <g
         style="stroke:#808000"
         id="g4116"
         transform="matrix(1.9345238,0,0,1.9345238,-43.37666,-84.7726)">
        <g
           style="stroke:#808000"
           transform="translate(-0.59308768,0)"
           id="g4118">
          <path
             style="fill:none;stroke:#808000;stroke-width:2.03151178"
             d="m 331.81099,271.36934 5.85956,0 0,5.85955 -5.85956,0 0,-5.85955 z"
             id="path4120"
             inkscape:connector-curvature="0" />
        </g>
        <g
           style="stroke:#808000"
           id="g4122"
           transform="translate(7.2979841,0)" />
      </g>
      <g
         transform="matrix(1.9345238,0,0,1.9345238,-14.861893,-84.7726)"
         id="g4124"
         style="stroke:#808000">
        <g
           id="g4126"
           transform="translate(-0.59308768,0)"
           style="stroke:#808000">
          <path
             inkscape:connector-curvature="0"
             id="path4128"
             d="m 331.81099,271.36934 5.85956,0 0,5.85955 -5.85956,0 0,-5.85955 z"
             style="fill:none;stroke:#808000;stroke-width:2.03151178" />
        </g>
        <g
           transform="translate(7.2979841,0)"
           id="g4130"
           style="stroke:#808000" />
      </g>
      <g
         style="stroke:#808000"
         id="g4132"
         transform="matrix(1.9345238,0,0,1.9345238,13.652874,-84.7726)">
        <g
           style="stroke:#808000"
           transform="translate(-0.59308768,0)"
           id="g4134">
          <path
             style="fill:none;stroke:#808000;stroke-width:2.03151178"
             d="m 331.81099,271.36934 5.85956,0 0,5.85955 -5.85956,0 0,-5.85955 z"
             id="path4136"
             inkscape:connector-curvature="0" />
        </g>
        <g
           style="stroke:#808000"
           id="g4138"
           transform="translate(7.2979841,0)" />
      </g>
      <g
         transform="matrix(1.9345238,0,0,1.9345238,42.167702,-84.7726)"
         id="g4140"
         style="stroke:#808000">
        <g
           id="g4142"
           transform="translate(-0.59308768,0)"
           style="stroke:#808000">
          <path
             inkscape:connector-curvature="0"
             id="path4144"
             d="m 331.81099,271.36934 5.85956,0 0,5.85955 -5.85956,0 0,-5.85955 z"
             style="fill:none;stroke:#808000;stroke-width:2.03151178" />
        </g>
        <g
           transform="translate(7.2979841,0)"
           id="g4146"
           style="stroke:#808000" />
      </g>
      <g
         style="stroke:#808000"
         id="g4148"
         transform="matrix(1.9345238,0,0,1.9345238,70.682472,-84.7726)">
        <g
           style="stroke:#808000"
           transform="translate(-0.59308768,0)"
           id="g4150">
          <path
             style="fill:none;stroke:#808000;stroke-width:2.03151178"
             d="m 331.81099,271.36934 5.85956,0 0,5.85955 -5.85956,0 0,-5.85955 z"
             id="path4152"
             inkscape:connector-curvature="0" />
        </g>
        <g
           style="stroke:#808000"
           id="g4154"
           transform="translate(7.2979841,0)" />
      </g>
      <g
         transform="matrix(1.9345238,0,0,1.9345238,99.197235,-84.7726)"
         id="g4156"
         style="stroke:#808000">
        <g
           id="g4158"
           transform="translate(-0.59308768,0)"
           style="stroke:#808000">
          <path
             inkscape:connector-curvature="0"
             id="path4160"
             d="m 331.81099,271.36934 5.85956,0 0,5.85955 -5.85956,0 0,-5.85955 z"
             style="fill:none;stroke:#808000;stroke-width:2.03151178" />
        </g>
        <g
           transform="translate(7.2979841,0)"
           id="g4162"
           style="stroke:#808000" />
      </g>
      <g
         style="stroke:#808000"
         id="g4164"
         transform="matrix(1.9345238,0,0,1.9345238,127.71206,-84.7726)">
        <g
           style="stroke:#808000"
           transform="translate(-0.59308768,0)"
           id="g4166">
          <path
             style="fill:none;stroke:#808000;stroke-width:2.03151178"
             d="m 331.81099,271.36934 5.85956,0 0,5.85955 -5.85956,0 0,-5.85955 z"
             id="path4168"
             inkscape:connector-curvature="0" />
        </g>
        <g
           style="stroke:#808000"
           id="g4170"
           transform="translate(7.2979841,0)" />
      </g>
      <g
         transform="matrix(1.9345238,0,0,1.9345238,156.22683,-84.7726)"
         id="g4172"
         style="stroke:#808000">
        <g
           id="g4174"
           transform="translate(-0.59308768,0)"
           style="stroke:#808000">
          <path
             inkscape:connector-curvature="0"
             id="path4176"
             d="m 331.81099,271.36934 5.85956,0 0,5.85955 -5.85956,0 0,-5.85955 z"
             style="fill:none;stroke:#808000;stroke-width:2.03151178" />
        </g>
        <g
           transform="translate(7.2979841,0)"
           id="g4178"
           style="stroke:#808000" />
      </g>
      <g
         style="stroke:#808000"
         id="g4180"
         transform="matrix(1.9345238,0,0,1.9345238,184.74166,-84.7726)">
        <g
           style="stroke:#808000"
           transform="translate(-0.59308768,0)"
           id="g4182">
          <path
             style="fill:none;stroke:#808000;stroke-width:2.03151178"
             d="m 331.81099,271.36934 5.85956,0 0,5.85955 -5.85956,0 0,-5.85955 z"
             id="path4184"
             inkscape:connector-curvature="0" />
        </g>
        <g
           style="stroke:#808000"
           id="g4186"
           transform="translate(7.2979841,0)" />
      </g>
      <g
         transform="matrix(1.9345238,0,0,1.9345238,213.25642,-84.7726)"
         id="g4188"
         style="stroke:#808000">
        <g
           id="g4190"
           transform="translate(-0.59308768,0)"
           style="stroke:#808000">
          <path
             inkscape:connector-curvature="0"
             id="path4192"
             d="m 331.81099,271.36934 5.85956,0 0,5.85955 -5.85956,0 0,-5.85955 z"
             style="fill:none;stroke:#808000;stroke-width:2.03151178" />
        </g>
        <g
           transform="translate(7.2979841,0)"
           id="g4194"
           style="stroke:#808000" />
      </g>
      <g
         style="stroke:#808000"
         id="g4196"
         transform="matrix(1.9345238,0,0,1.9345238,241.77119,-84.7726)">
        <g
           style="stroke:#808000"
           transform="translate(-0.59308768,0)"
           id="g4198">
          <path
             style="fill:none;stroke:#808000;stroke-width:2.03151178"
             d="m 331.81099,271.36934 5.85956,0 0,5.85955 -5.85956,0 0,-5.85955 z"
             id="path4200"
             inkscape:connector-curvature="0" />
        </g>
        <g
           style="stroke:#808000"
           id="g4202"
           transform="translate(7.2979841,0)" />
      </g>
      <g
         transform="matrix(1.9345238,0,0,1.9345238,270.28602,-84.7726)"
         id="g4204"
         style="stroke:#808000">
        <g
           id="g4206"
           transform="translate(-0.59308768,0)"
           style="stroke:#808000">
          <path
             inkscape:connector-curvature="0"
             id="path4208"
             d="m 331.81099,271.36934 5.85956,0 0,5.85955 -5.85956,0 0,-5.85955 z"
             style="fill:none;stroke:#808000;stroke-width:2.03151178" />
        </g>
        <g
           transform="translate(7.2979841,0)"
           id="g4210"
           style="stroke:#808000" />
      </g>
      <g
         style="stroke:#808000"
         id="g4212"
         transform="matrix(1.9345238,0,0,1.9345238,298.8008,-84.7726)">
        <g
           style="stroke:#808000"
           transform="translate(-0.59308768,0)"
           id="g4214">
          <path
             style="fill:none;stroke:#808000;stroke-width:2.03151178"
             d="m 331.81099,271.36934 5.85956,0 0,5.85955 -5.85956,0 0,-5.85955 z"
             id="path4216"
             inkscape:connector-curvature="0" />
        </g>
        <g
           style="stroke:#808000"
           id="g4218"
           transform="translate(7.2979841,0)" />
      </g>
    </g>
  </g>
</svg>
