<?xml version="1.0" encoding="UTF-8" standalone="no"?>
<svg
   xmlns:dc="http://purl.org/dc/elements/1.1/"
   xmlns:cc="http://creativecommons.org/ns#"
   xmlns:rdf="http://www.w3.org/1999/02/22-rdf-syntax-ns#"
   xmlns:svg="http://www.w3.org/2000/svg"
   xmlns="http://www.w3.org/2000/svg"
   xmlns:sodipodi="http://sodipodi.sourceforge.net/DTD/sodipodi-0.dtd"
   xmlns:inkscape="http://www.inkscape.org/namespaces/inkscape"
   enable-background="new 0 0 24 24"
   height="24px"
   id="Layer_1"
   version="1.1"
   viewBox="0 0 24 24"
   width="24px"
   xml:space="preserve"
   inkscape:version="0.91 r13725"
   sodipodi:docname="Keyboard.svg"><metadata
     id="metadata3419"><rdf:RDF><cc:Work
         rdf:about=""><dc:format>image/svg+xml</dc:format><dc:type
           rdf:resource="http://purl.org/dc/dcmitype/StillImage" /></cc:Work></rdf:RDF></metadata><defs
     id="defs3417" /><sodipodi:namedview
     pagecolor="#ffffff"
     bordercolor="#666666"
     borderopacity="1"
     objecttolerance="10"
     gridtolerance="10"
     guidetolerance="10"
     inkscape:pageopacity="0"
     inkscape:pageshadow="2"
     inkscape:window-width="1920"
     inkscape:window-height="1017"
     id="namedview3415"
     showgrid="false"
     inkscape:zoom="9.8333333"
     inkscape:cx="12"
     inkscape:cy="12"
     inkscape:window-x="-8"
     inkscape:window-y="-8"
     inkscape:window-maximized="1"
     inkscape:current-layer="Layer_1" /><g
     id="g3387"><path
       d="M23,8H5V6c0-1.1,0.9-2,2-2h11c1.1,0,2-0.9,2-2s-0.9-2-2-2h-6.5C11.2,0,11,0.2,11,0.5S11.2,1,11.5,1H18c0.6,0,1,0.4,1,1   s-0.4,1-1,1H7C5.3,3,4,4.3,4,6v2H1C0.4,8,0,8.4,0,9v14c0,0.6,0.4,1,1,1h22c0.6,0,1-0.4,1-1V9C24,8.4,23.6,8,23,8z M22,22H2V10h20   V22z"
       id="path3389" /><rect
       height="2"
       width="2"
       x="5"
       y="15"
       id="rect3391" /><rect
       height="2"
       width="2"
       x="8"
       y="15"
       id="rect3393" /><rect
       height="2"
       width="11"
       x="5"
       y="18"
       id="rect3395" /><rect
       height="2"
       width="2"
       x="11"
       y="15"
       id="rect3397" /><rect
       height="2"
       width="2"
       x="14"
       y="15"
       id="rect3399" /><rect
       height="2"
       width="2"
       x="17"
       y="15"
       id="rect3401" /><rect
       height="2"
       width="2"
       x="5"
       y="12"
       id="rect3403" /><rect
       height="2"
       width="2"
       x="8"
       y="12"
       id="rect3405" /><rect
       height="2"
       width="2"
       x="11"
       y="12"
       id="rect3407" /><rect
       height="2"
       width="2"
       x="14"
       y="12"
       id="rect3409" /><rect
       height="2"
       width="2"
       x="17"
       y="12"
       id="rect3411" /><rect
       height="2"
       width="2"
       x="17"
       y="18"
       id="rect3413" /></g><path
     style="fill:#f2f2f2"
     d="M 0.48659623,23.801318 C 0.30362319,23.702009 0.1740793,23.516273 0.10257115,23.250712 0.03002163,22.981283 0.00386722,20.518466 0.02275458,15.734822 L 0.05084746,8.6196784 0.2951945,8.3596316 C 0.53652263,8.1027976 0.56102321,8.0992418 2.2782454,8.0718262 L 4.0169492,8.0440678 4.0711921,6.5694915 C 4.1175214,5.310048 4.1578178,5.0355682 4.3473943,4.6881356 4.8029538,3.8532415 5.3766563,3.3955655 6.2541454,3.1670086 6.7618837,3.0347595 7.7657509,3.0096624 12.656959,3.0069353 c 4.399477,-0.00245 5.839645,-0.03316 5.962023,-0.1271187 0.490855,-0.3768667 0.540369,-1.1666199 0.100705,-1.6062833 l -0.297262,-0.29726211 -3.546806,0 c -2.623033,0 -3.578589,-0.031784 -3.668839,-0.1220339 -0.156865,-0.15686447 -0.156865,-0.51432197 0,-0.67118644 0.188976,-0.18897659 7.089761,-0.17213886 7.533775,0.0183822 0.398805,0.17112313 0.937328,0.72368434 1.083717,1.11196694 0.297794,0.7898759 -0.03478,1.8241458 -0.735792,2.2882255 l -0.412302,0.2729508 -6.109276,0.050847 -6.1092749,0.050847 -0.43209,0.2308225 C 5.7878877,4.3340461 5.4675487,4.6279406 5.3136727,4.8601926 5.0476844,5.2616609 5.0322668,5.3517616 5.0007881,6.6886921 l -0.03311,1.4062232 9.2441972,0 9.244197,0 0.246541,0.2623815 0.24654,0.2623816 0.02809,7.1151436 c 0.01892,4.791417 -0.0072,7.246256 -0.08001,7.516601 -0.203818,0.756922 0.61817,0.708378 -11.917611,0.703827 C 2.2963135,23.951736 0.72496072,23.93069 0.48659623,23.801318 Z m 21.58120077,-7.825047 0,-6.0508473 -10.067797,0 -10.0677966,0 0,6.0508473 0,6.050848 10.0677966,0 10.067797,0 0,-6.050848 z"
     id="path3421"
     inkscape:connector-curvature="0" /><path
     style="fill:#f2f2f2"
     d="m 5.0847458,13.027119 0,-0.966102 0.9152542,0 0.9152542,0 0,0.966102 0,0.966101 -0.9152542,0 -0.9152542,0 0,-0.966101 z"
     id="path3423"
     inkscape:connector-curvature="0" /><path
     style="fill:#f2f2f2"
     d="m 5.0847458,15.976271 0,-0.966102 0.9152542,0 0.9152542,0 0,0.966102 0,0.966102 -0.9152542,0 -0.9152542,0 0,-0.966102 z"
     id="path3425"
     inkscape:connector-curvature="0" /><path
     style="fill:#f2f2f2"
     d="m 5.0847458,19.027119 0,-0.966102 5.4406782,0 5.440678,0 0,0.966102 0,0.966101 -5.440678,0 -5.4406782,0 0,-0.966101 z"
     id="path3427"
     inkscape:connector-curvature="0" /><path
     style="fill:#f2f2f2"
     d="m 8.0338983,13.027119 0,-0.966102 0.9661017,0 0.9661017,0 0,0.966102 0,0.966101 -0.9661017,0 -0.9661017,0 0,-0.966101 z"
     id="path3429"
     inkscape:connector-curvature="0" /><path
     style="fill:#f2f2f2"
     d="m 8.0338983,15.976271 0,-0.966102 0.9661017,0 0.9661017,0 0,0.966102 0,0.966102 -0.9661017,0 -0.9661017,0 0,-0.966102 z"
     id="path3431"
     inkscape:connector-curvature="0" /><path
     style="fill:#f2f2f2"
     d="m 11.084746,15.976271 0,-0.966102 0.915254,0 0.915254,0 0,0.966102 0,0.966102 -0.915254,0 -0.915254,0 0,-0.966102 z"
     id="path3433"
     inkscape:connector-curvature="0" /><path
     style="fill:#f2f2f2"
     d="m 11.084746,13.027119 0,-0.966102 0.915254,0 0.915254,0 0,0.966102 0,0.966101 -0.915254,0 -0.915254,0 0,-0.966101 z"
     id="path3435"
     inkscape:connector-curvature="0" /><path
     style="fill:#f2f2f2"
     d="m 14.033898,13.027119 0,-0.966102 0.966102,0 0.966102,0 0,0.966102 0,0.966101 -0.966102,0 -0.966102,0 0,-0.966101 z"
     id="path3437"
     inkscape:connector-curvature="0" /><path
     style="fill:#f2f2f2"
     d="m 14.033898,15.976271 0,-0.966102 0.966102,0 0.966102,0 0,0.966102 0,0.966102 -0.966102,0 -0.966102,0 0,-0.966102 z"
     id="path3439"
     inkscape:connector-curvature="0" /><path
     style="fill:#f2f2f2"
     d="m 17.084746,15.976271 0,-0.966102 0.915254,0 0.915254,0 0,0.966102 0,0.966102 -0.915254,0 -0.915254,0 0,-0.966102 z"
     id="path3441"
     inkscape:connector-curvature="0" /><path
     style="fill:#f2f2f2"
     d="m 17.084746,13.027119 0,-0.966102 0.915254,0 0.915254,0 0,0.966102 0,0.966101 -0.915254,0 -0.915254,0 0,-0.966101 z"
     id="path3443"
     inkscape:connector-curvature="0" /><path
     style="fill:#f2f2f2"
     d="m 17.084746,19.027119 0,-0.966102 0.915254,0 0.915254,0 0,0.966102 0,0.966101 -0.915254,0 -0.915254,0 0,-0.966101 z"
     id="path3445"
     inkscape:connector-curvature="0" /></svg>