<?xml version="1.0" encoding="UTF-8" standalone="no"?>
<svg
   xmlns:dc="http://purl.org/dc/elements/1.1/"
   xmlns:cc="http://creativecommons.org/ns#"
   xmlns:rdf="http://www.w3.org/1999/02/22-rdf-syntax-ns#"
   xmlns:svg="http://www.w3.org/2000/svg"
   xmlns="http://www.w3.org/2000/svg"
   xmlns:sodipodi="http://sodipodi.sourceforge.net/DTD/sodipodi-0.dtd"
   xmlns:inkscape="http://www.inkscape.org/namespaces/inkscape"
   height="24px"
   id="Layer_1"
   version="1.2"
   viewBox="0 0 24 24"
   width="24px"
   xml:space="preserve"
   inkscape:version="0.91 r13725"
   sodipodi:docname="menu.svg"><metadata
     id="metadata3359"><rdf:RDF><cc:Work
         rdf:about=""><dc:format>image/svg+xml</dc:format><dc:type
           rdf:resource="http://purl.org/dc/dcmitype/StillImage" /></cc:Work></rdf:RDF></metadata><defs
     id="defs3357" /><sodipodi:namedview
     pagecolor="#ffffff"
     bordercolor="#666666"
     borderopacity="1"
     objecttolerance="10"
     gridtolerance="10"
     guidetolerance="10"
     inkscape:pageopacity="0"
     inkscape:pageshadow="2"
     inkscape:window-width="1920"
     inkscape:window-height="1017"
     id="namedview3355"
     showgrid="false"
     inkscape:zoom="35.333333"
     inkscape:cx="12"
     inkscape:cy="12"
     inkscape:window-x="-8"
     inkscape:window-y="-8"
     inkscape:window-maximized="1"
     inkscape:current-layer="Layer_1" /><g
     id="g3337"><g
       id="g3339"><path
         d="M19,18c0.55,0,1,0.45,1,1s-0.45,1-1,1H5c-0.55,0-1-0.45-1-1s0.45-1,1-1H19 M19,16H5c-1.654,0-3,1.346-3,3s1.346,3,3,3h14    c1.654,0,3-1.346,3-3S20.654,16,19,16z"
         id="path3341" /></g></g><g
     id="g3343"><g
       id="g3345"><path
         d="M19,11c0.55,0,1,0.45,1,1s-0.45,1-1,1H5c-0.55,0-1-0.45-1-1s0.45-1,1-1H19 M19,9H5c-1.654,0-3,1.346-3,3s1.346,3,3,3h14    c1.654,0,3-1.346,3-3S20.654,9,19,9z"
         id="path3347" /></g></g><g
     id="g3349"><g
       id="g3351"><path
         d="M19,4c0.55,0,1,0.45,1,1s-0.45,1-1,1H5C4.45,6,4,5.55,4,5s0.45-1,1-1H19 M19,2H5C3.346,2,2,3.346,2,5s1.346,3,3,3h14    c1.654,0,3-1.346,3-3S20.654,2,19,2z"
         id="path3353" /></g></g><path
     style="fill:#f2f2f2"
     d="M 4.6878017,7.9670994 C 3.9522722,7.8894911 3.2182418,7.5031175 2.7405943,6.9421415 1.9595366,6.0248242 1.7962471,4.7813834 2.3161968,3.7103774 2.6958417,2.9283746 3.3305602,2.3934628 4.2029858,2.1202776 l 0.2545614,-0.079712 7.4433958,-0.00779 c 8.245659,-0.00863 7.616194,-0.022119 8.140087,0.1744466 0.718501,0.2695827 1.28098,0.7796342 1.626449,1.4748522 0.743066,1.4953384 0.122602,3.2853487 -1.389177,4.0077102 -0.328426,0.1569291 -0.626895,0.2399018 -1.004717,0.2793059 -0.330309,0.034449 -14.2584454,0.032546 -14.5857833,-0.00199 l 0,2e-7 z M 19.415094,5.9148546 c 0.22072,-0.1055536 0.399351,-0.2800604 0.503483,-0.4918582 0.06775,-0.1377948 0.07647,-0.1874154 0.07468,-0.4248832 -0.0016,-0.2117229 -0.01502,-0.2976856 -0.06317,-0.4044554 -0.09016,-0.1999511 -0.314645,-0.422746 -0.522849,-0.5189173 l -0.176105,-0.081344 -7.231132,0 -7.2311321,0 -0.1761049,0.081344 c -0.2082043,0.096171 -0.4326873,0.3189662 -0.5228493,0.5189173 -0.048145,0.1067698 -0.06157,0.1927325 -0.063168,0.4044554 -0.00179,0.2372915 0.00696,0.2871713 0.074514,0.4247185 0.1345092,0.2738762 0.4077696,0.4955952 0.6945679,0.5635608 0.060843,0.014419 3.1722478,0.023311 7.280776,0.020808 l 7.174528,-0.00437 0.183962,-0.087976 z"
     id="path3361"
     inkscape:connector-curvature="0" /><path
     style="fill:#f2f2f2"
     d="M 4.5731532,14.957571 C 3.0579558,14.734672 1.9342229,13.36287 2.021199,11.842262 c 0.079364,-1.38752 1.1079896,-2.544258 2.4754328,-2.7837401 0.3572097,-0.062559 14.6495262,-0.062559 15.0067362,0 1.545697,0.2706999 2.640325,1.7198591 2.462577,3.2601611 -0.143185,1.240785 -0.999755,2.23128 -2.228671,2.577124 l -0.279727,0.07872 -7.35849,0.0038 c -4.0500508,0.0021 -7.4337612,-0.0072 -7.5259038,-0.02079 z M 19.420656,12.917825 c 0.205663,-0.0964 0.402653,-0.293393 0.499056,-0.499056 0.06439,-0.137377 0.07557,-0.198982 0.07557,-0.416534 0,-0.231436 -0.0087,-0.272983 -0.09302,-0.444265 -0.102889,-0.208997 -0.267865,-0.373395 -0.481045,-0.479357 l -0.133481,-0.06635 -7.287736,0 -7.2877358,0 -0.1334817,0.06635 c -0.2131793,0.105962 -0.3781555,0.27036 -0.4810443,0.479357 -0.084378,0.171396 -0.093008,0.212676 -0.092878,0.444265 1.132e-4,0.203828 0.012835,0.282875 0.063083,0.391996 0.1280411,0.278061 0.3300733,0.463667 0.6103542,0.560729 0.14044,0.04864 0.4774099,0.05068 7.3641557,0.0447 l 7.216981,-0.0063 0.161222,-0.07557 z"
     id="path3363"
     inkscape:connector-curvature="0" /><path
     style="fill:#f2f2f2"
     d="m 4.3933896,21.920149 c -0.9005734,-0.18912 -1.6418171,-0.764 -2.0585945,-1.596564 -0.2322193,-0.463887 -0.3039854,-0.769519 -0.3056988,-1.301887 -0.0015,-0.466793 0.030934,-0.661718 0.1764767,-1.060513 0.354749,-0.972036 1.2115462,-1.691403 2.2661251,-1.902639 0.2819196,-0.05647 14.7857619,-0.05409 15.0707549,0.0025 1.037865,0.205985 1.898787,0.932412 2.251974,1.900167 0.145542,0.398795 0.177979,0.59372 0.176477,1.060513 -0.0012,0.362215 -0.012,0.464848 -0.07381,0.699221 -0.296157,1.122969 -1.184905,1.971997 -2.302703,2.199789 -0.286191,0.05832 -0.314094,0.05853 -7.612987,0.05653 -7.1452207,-0.002 -7.3322055,-0.0034 -7.5880134,-0.05709 z M 19.364197,19.947064 c 0.226194,-0.09139 0.425295,-0.279739 0.53824,-0.509163 0.08413,-0.170888 0.09285,-0.212571 0.09285,-0.44391 0,-0.217552 -0.01118,-0.279156 -0.07557,-0.416533 -0.09624,-0.205328 -0.277705,-0.386787 -0.492008,-0.492009 l -0.16827,-0.08262 -7.259434,0 -7.259434,0 -0.1682696,0.08262 c -0.2143035,0.105222 -0.3957629,0.286681 -0.4920082,0.492009 -0.064354,0.13729 -0.075571,0.199031 -0.075571,0.415938 0,0.216677 0.011245,0.278704 0.075295,0.415335 0.1497071,0.319353 0.4375621,0.540707 0.7660609,0.589084 0.082066,0.01209 3.3459087,0.02028 7.2529846,0.01821 l 7.103773,-0.0038 0.161367,-0.0652 z"
     id="path3365"
     inkscape:connector-curvature="0" /></svg>