<?xml version="1.0" encoding="UTF-8" standalone="no"?>
<svg
   xmlns:dc="http://purl.org/dc/elements/1.1/"
   xmlns:cc="http://creativecommons.org/ns#"
   xmlns:rdf="http://www.w3.org/1999/02/22-rdf-syntax-ns#"
   xmlns:svg="http://www.w3.org/2000/svg"
   xmlns="http://www.w3.org/2000/svg"
   xmlns:sodipodi="http://sodipodi.sourceforge.net/DTD/sodipodi-0.dtd"
   xmlns:inkscape="http://www.inkscape.org/namespaces/inkscape"
   enable-background="new 0 0 48 48"
   height="48px"
   version="1.1"
   viewBox="0 0 48 48"
   width="48px"
   xml:space="preserve"
   id="svg2"
   inkscape:version="0.91 r13725"
   sodipodi:docname="obs.svg"><metadata
     id="metadata31"><rdf:RDF><cc:Work
         rdf:about=""><dc:format>image/svg+xml</dc:format><dc:type
           rdf:resource="http://purl.org/dc/dcmitype/StillImage" /></cc:Work></rdf:RDF></metadata><defs
     id="defs29" /><sodipodi:namedview
     pagecolor="#ffffff"
     bordercolor="#666666"
     borderopacity="1"
     objecttolerance="10"
     gridtolerance="10"
     guidetolerance="10"
     inkscape:pageopacity="0"
     inkscape:pageshadow="2"
     inkscape:window-width="1920"
     inkscape:window-height="1017"
     id="namedview27"
     showgrid="false"
     inkscape:zoom="4.9166667"
     inkscape:cx="24"
     inkscape:cy="24"
     inkscape:window-x="-8"
     inkscape:window-y="-8"
     inkscape:window-maximized="1"
     inkscape:current-layer="svg2" /><g
     id="Expanded"
     style="fill:#f2f2f2"
     transform="matrix(0.92141756,0,0,0.88135594,1.9876733,2.8474576)"><g
       id="g5"
       style="fill:#f2f2f2"><g
         id="g7"
         style="fill:#f2f2f2"><path
           d="m 36,48 -24,0 c -0.522,0 -0.957,-0.402 -0.997,-0.923 L 9.07,21.946 C 5.095,21.484 2,18.097 2,14 2,9.581 5.678,5.849 10.032,5.849 c 0.91,0 1.803,0.177 2.636,0.52 C 14.072,2.509 18.439,0 24,0 29.224,0 32.878,2.112 35.14,6.45 36.027,6.054 36.988,5.848 37.968,5.848 42.322,5.849 46,9.581 46,14 c 0,4.097 -3.095,7.484 -7.07,7.946 L 36.997,47.077 C 36.957,47.598 36.522,48 36,48 Z M 12.926,46 35.073,46 37.002,20.923 C 37.043,20.402 37.478,20 38,20 c 3.309,0 6,-2.691 6,-6 0,-3.625 -3.179,-6.151 -6.032,-6.151 -0.982,0 -1.899,0.274 -2.724,0.817 C 34.999,8.827 34.693,8.873 34.412,8.789 34.13,8.706 33.899,8.504 33.78,8.234 31.898,3.981 28.791,2 24,2 18.843,2 14.941,4.415 14.29,8.009 14.23,8.339 14.009,8.617 13.7,8.749 13.392,8.883 13.037,8.851 12.757,8.666 11.932,8.123 11.015,7.849 10.033,7.849 7.179,7.849 4,10.375 4,14 c 0,3.309 2.691,6 6,6 0.522,0 0.957,0.402 0.997,0.923 L 12.926,46 Z"
           id="path9"
           style="fill:#f2f2f2"
           inkscape:connector-curvature="0" /></g><g
         id="g11"
         style="fill:#f2f2f2"><path
           d="m 36.625,40 -25.25,0 c -0.552,0 -1,-0.447 -1,-1 0,-0.553 0.448,-1 1,-1 l 25.25,0 c 0.552,0 1,0.447 1,1 0,0.553 -0.448,1 -1,1 z"
           id="path13"
           style="fill:#f2f2f2"
           inkscape:connector-curvature="0" /></g><g
         id="g15"
         style="fill:#f2f2f2"><path
           d="m 19,40 c -0.552,0 -1,-0.447 -1,-1 l 0,-8 c 0,-0.553 0.448,-1 1,-1 0.552,0 1,0.447 1,1 l 0,8 c 0,0.553 -0.448,1 -1,1 z"
           id="path17"
           style="fill:#f2f2f2"
           inkscape:connector-curvature="0" /></g><g
         id="g19"
         style="fill:#f2f2f2"><path
           d="m 24,40 c -0.552,0 -1,-0.447 -1,-1 l 0,-10 c 0,-0.553 0.448,-1 1,-1 0.552,0 1,0.447 1,1 l 0,10 c 0,0.553 -0.448,1 -1,1 z"
           id="path21"
           style="fill:#f2f2f2"
           inkscape:connector-curvature="0" /></g><g
         id="g23"
         style="fill:#f2f2f2"><path
           d="m 29,40 c -0.552,0 -1,-0.447 -1,-1 l 0,-8 c 0,-0.553 0.448,-1 1,-1 0.552,0 1,0.447 1,1 l 0,8 c 0,0.553 -0.448,1 -1,1 z"
           id="path25"
           style="fill:#f2f2f2"
           inkscape:connector-curvature="0" /></g></g></g></svg>