<?xml version="1.0" encoding="UTF-8" standalone="no"?>
<svg
   xmlns:dc="http://purl.org/dc/elements/1.1/"
   xmlns:cc="http://creativecommons.org/ns#"
   xmlns:rdf="http://www.w3.org/1999/02/22-rdf-syntax-ns#"
   xmlns:svg="http://www.w3.org/2000/svg"
   xmlns="http://www.w3.org/2000/svg"
   xmlns:sodipodi="http://sodipodi.sourceforge.net/DTD/sodipodi-0.dtd"
   xmlns:inkscape="http://www.inkscape.org/namespaces/inkscape"
   height="32px"
   version="1.1"
   viewBox="0 0 32 32"
   width="32px"
   id="svg2"
   inkscape:version="0.91 r13725"
   sodipodi:docname="proformaFel2.svg">
  <metadata
     id="metadata15">
    <rdf:RDF>
      <cc:Work
         rdf:about="">
        <dc:format>image/svg+xml</dc:format>
        <dc:type
           rdf:resource="http://purl.org/dc/dcmitype/StillImage" />
        <dc:title />
      </cc:Work>
    </rdf:RDF>
  </metadata>
  <sodipodi:namedview
     pagecolor="#ffffff"
     bordercolor="#666666"
     borderopacity="1"
     objecttolerance="10"
     gridtolerance="10"
     guidetolerance="10"
     inkscape:pageopacity="0"
     inkscape:pageshadow="2"
     inkscape:window-width="1920"
     inkscape:window-height="1017"
     id="namedview13"
     showgrid="false"
     inkscape:zoom="11.147438"
     inkscape:cx="9.8497887"
     inkscape:cy="10.310707"
     inkscape:window-x="-8"
     inkscape:window-y="-8"
     inkscape:window-maximized="1"
     inkscape:current-layer="svg2" />
  <desc
     id="desc6" />
  <defs
     id="defs8">
    <inkscape:perspective
       id="perspective3405"
       inkscape:persp3d-origin="372.04724 : 350.7874 : 1"
       inkscape:vp_z="744.09449 : 526.1811 : 1"
       inkscape:vp_y="0 : 1000 : 0"
       inkscape:vp_x="0 : 526.1811 : 1"
       sodipodi:type="inkscape:persp3d" />
    <inkscape:perspective
       id="perspective3405-7"
       inkscape:persp3d-origin="372.04724 : 350.7874 : 1"
       inkscape:vp_z="744.09449 : 526.1811 : 1"
       inkscape:vp_y="0 : 1000 : 0"
       inkscape:vp_x="0 : 526.1811 : 1"
       sodipodi:type="inkscape:persp3d" />
  </defs>
  <g
     id="g5817"
     transform="matrix(1.3478261,0,0,1.3451724,-6.224466,-6.1819274)">
    <path
       id="note-list"
       d="M 7,5 C 5.9007631,5 5,5.8949532 5,7 l 0,19 c 0,1.099237 0.8953718,2 2,2 l 13.232422,0 A 7,7 0 0 1 17.333984,27 L 7.0078125,27 C 6.4513944,27 6,26.562084 6,26.001953 L 6,11 l 21,0 0,6.460938 a 7,7 0 0 1 0.994141,3.544921 L 28,21 28,20.5 28,6.9941406 C 28,5.8945941 27.105047,5 26,5 L 7,5 Z M 6.9980469,6 26.001953,6 C 26.553545,6 27,6.4509158 27,7.0078125 L 27,10 6,10 6,6.9980469 C 6,6.4464547 6.4379156,6 6.9980469,6 Z M 8,13 l 0,3 3,0 0,-3 -3,0 z m 1,1 1,0 0,1 -1,0 0,-1 z m 4,0 0,1 4.484375,0 A 7,7 0 0 1 20.996094,14.044922 7,7 0 0 1 24.511719,15 L 25,15 25,14 13,14 Z m -5,3 0,3 3,0 0,-3 -3,0 z m 1,1 1,0 0,1 -1,0 0,-1 z m 4,0 0,1 1.302734,0 a 7,7 0 0 1 0.400391,-1 L 13,18 Z m -5,3 0,3 3,0 0,-3 -3,0 z m 1,1 1,0 0,1 -1,0 0,-1 z m 4,0 0,1 1.279297,0 A 7,7 0 0 1 14.070312,22 L 13,22 Z m 9.033203,5.960938 A 7,7 0 0 1 21.71875,28 L 22,28 22.0332,27.96094 Z"
       style="fill:#000000;fill-rule:evenodd;stroke:none;stroke-width:1"
       inkscape:connector-curvature="0" />
    <path
       id="path3385"
       d="m 20.987595,14.045371 a 6.9999912,7.0000136 0 0 0 -7.000022,7.000001 6.9999912,7.0000136 0 0 0 7.000022,7.000001 6.9999912,7.0000136 0 0 0 6.999979,-7.000001 6.9999912,7.0000136 0 0 0 -6.999979,-7.000001 z m 0,0.527762 a 6.328206,6.444457 0 0 1 6.328174,6.444472 6.328206,6.444457 0 0 1 -6.328174,6.444427 6.328206,6.444457 0 0 1 -6.328217,-6.444427 6.328206,6.444457 0 0 1 6.328217,-6.444472 z"
       style="fill:#000000;fill-opacity:1"
       inkscape:connector-curvature="0" />
    <g
       transform="matrix(0.02192391,0,0,0.02300474,12.734787,10.679978)"
       id="g3515"
       style="fill:#aa0000">
      <rect
         style="fill:#aa0000;fill-opacity:1"
         id="rect3439"
         width="258.57141"
         height="45.414635"
         x="247.14285"
         y="328.07645" />
      <rect
         style="fill:#aa0000;fill-opacity:1"
         id="rect3439-5"
         width="258.57141"
         height="45.414635"
         x="247.14285"
         y="427.8692" />
      <rect
         style="fill:#aa0000;fill-opacity:1"
         id="rect3439-2"
         width="258.57141"
         height="45.414635"
         x="247.14285"
         y="527.6618" />
      <rect
         style="fill:#aa0000;fill-opacity:1"
         id="rect3467"
         width="66.489799"
         height="119.51221"
         x="439.22446"
         y="328.07645" />
      <rect
         style="fill:#aa0000;fill-opacity:1"
         id="rect3501"
         width="60.380947"
         height="100.39025"
         x="247.14285"
         y="447.58868" />
    </g>
  </g>
</svg>
