<?xml version="1.0" encoding="UTF-8" standalone="no"?>
<svg
   xmlns:dc="http://purl.org/dc/elements/1.1/"
   xmlns:cc="http://creativecommons.org/ns#"
   xmlns:rdf="http://www.w3.org/1999/02/22-rdf-syntax-ns#"
   xmlns:svg="http://www.w3.org/2000/svg"
   xmlns="http://www.w3.org/2000/svg"
   xmlns:sodipodi="http://sodipodi.sourceforge.net/DTD/sodipodi-0.dtd"
   xmlns:inkscape="http://www.inkscape.org/namespaces/inkscape"
   height="32px"
   version="1.1"
   viewBox="0 0 32 32"
   width="32px"
   id="svg2"
   inkscape:version="0.91 r13725"
   sodipodi:docname="proformaDesert.svg">
  <metadata
     id="metadata15">
    <rdf:RDF>
      <cc:Work
         rdf:about="">
        <dc:format>image/svg+xml</dc:format>
        <dc:type
           rdf:resource="http://purl.org/dc/dcmitype/StillImage" />
        <dc:title />
      </cc:Work>
    </rdf:RDF>
  </metadata>
  <sodipodi:namedview
     pagecolor="#ffffff"
     bordercolor="#666666"
     borderopacity="1"
     objecttolerance="10"
     gridtolerance="10"
     guidetolerance="10"
     inkscape:pageopacity="0"
     inkscape:pageshadow="2"
     inkscape:window-width="1920"
     inkscape:window-height="1017"
     id="namedview13"
     showgrid="false"
     inkscape:zoom="11.313709"
     inkscape:cx="16.329873"
     inkscape:cy="19.957411"
     inkscape:window-x="-8"
     inkscape:window-y="-8"
     inkscape:window-maximized="1"
     inkscape:current-layer="svg2" />
  <desc
     id="desc6" />
  <defs
     id="defs8">
    <inkscape:perspective
       id="perspective3405"
       inkscape:persp3d-origin="372.04724 : 350.7874 : 1"
       inkscape:vp_z="744.09449 : 526.1811 : 1"
       inkscape:vp_y="0 : 1000 : 0"
       inkscape:vp_x="0 : 526.1811 : 1"
       sodipodi:type="inkscape:persp3d" />
    <inkscape:perspective
       id="perspective3405-7"
       inkscape:persp3d-origin="372.04724 : 350.7874 : 1"
       inkscape:vp_z="744.09449 : 526.1811 : 1"
       inkscape:vp_y="0 : 1000 : 0"
       inkscape:vp_x="0 : 526.1811 : 1"
       sodipodi:type="inkscape:persp3d" />
    <inkscape:perspective
       id="perspective3405-5"
       inkscape:persp3d-origin="372.04724 : 350.7874 : 1"
       inkscape:vp_z="744.09449 : 526.1811 : 1"
       inkscape:vp_y="0 : 1000 : 0"
       inkscape:vp_x="0 : 526.1811 : 1"
       sodipodi:type="inkscape:persp3d" />
    <inkscape:perspective
       id="perspective3405-0"
       inkscape:persp3d-origin="372.04724 : 350.7874 : 1"
       inkscape:vp_z="744.09449 : 526.1811 : 1"
       inkscape:vp_y="0 : 1000 : 0"
       inkscape:vp_x="0 : 526.1811 : 1"
       sodipodi:type="inkscape:persp3d" />
    <inkscape:perspective
       id="perspective3405-04"
       inkscape:persp3d-origin="372.04724 : 350.7874 : 1"
       inkscape:vp_z="744.09449 : 526.1811 : 1"
       inkscape:vp_y="0 : 1000 : 0"
       inkscape:vp_x="0 : 526.1811 : 1"
       sodipodi:type="inkscape:persp3d" />
  </defs>
  <path
     style="fill:#000000;fill-rule:evenodd;stroke:none;stroke-width:1"
     d="m 3.0110701,0.4900583 c -1.4815802,0 -2.6956522,1.2039949 -2.6956522,2.690632 l 0,25.5610037 c 0,1.478821 1.2068055,2.690632 2.6956522,2.690632 l 17.8350039,0 A 9.4347827,9.417212 0 0 1 16.939483,30.08701 l -13.917883,0 c -0.7499548,0 -1.358356,-0.589135 -1.358356,-1.342688 l 0,-20.1823677 28.304348,0 0,8.6920037 a 9.4347827,9.417212 0 0 1 1.339929,4.769039 l 0.0079,-0.0079 0,-0.672658 0,-18.1696484 c 0,-1.4792375 -1.206241,-2.6827493 -2.695652,-2.6827493 l -25.6086959,0 z m -0.00263,1.345316 25.6139599,0 c 0.74345,0 1.345194,0.6066242 1.345194,1.3558263 l 0,4.0254377 -28.3043476,0 0,-4.0385755 c 0,-0.7420658 0.5902341,-1.3426885 1.3451937,-1.3426885 z m 1.3504585,9.4172117 0,4.035948 4.0434783,0 0,-4.035948 -4.0434783,0 z m 1.3478261,1.345316 1.3478261,0 0,1.345316 -1.3478261,0 0,-1.345316 z m 5.3913043,0 0,1.345316 6.044157,0 a 9.4347827,9.417212 0 0 1 4.733187,-1.284881 9.4347827,9.417212 0 0 1 4.738451,1.284881 l 0.658118,0 0,-1.345316 -16.173913,0 z m -6.7391304,4.035948 0,4.035948 4.0434783,0 0,-4.035948 -4.0434783,0 z m 1.3478261,1.345316 1.3478261,0 0,1.345316 -1.3478261,0 0,-1.345316 z m 5.3913043,0 0,1.345316 1.755859,0 a 9.4347827,9.417212 0 0 1 0.539657,-1.345316 l -2.295516,0 z m -6.7391304,4.035948 0,4.035948 4.0434783,0 0,-4.035948 -4.0434783,0 z m 1.3478261,1.345316 1.3478261,0 0,1.345316 -1.3478261,0 0,-1.345316 z m 5.3913043,0 0,1.345316 1.72427,0 A 9.4347827,9.417212 0 0 1 12.540621,23.36043 l -1.442594,0 z m 12.175186,8.019346 a 9.4347827,9.417212 0 0 1 -0.423827,0.05255 l 0.379076,0 0.04475,-0.05255 z"
     id="note-list"
     inkscape:connector-curvature="0" />
  <g
     id="layer1"
     inkscape:label="Layer 1"
     transform="matrix(0.0257585,0,0,0.02566701,12.24607,8.7372939)">
    <g
       transform="matrix(1.1510052,0,0,1.2077487,-56.982497,-29.203304)"
       id="g4755">
      <path
         inkscape:connector-curvature="0"
         style="fill:#000000;fill-opacity:1"
         d="M 373.57227,149.50586 A 319.28571,304.28571 0 0 0 54.285156,453.79102 319.28571,304.28571 0 0 0 373.57227,758.07617 319.28571,304.28571 0 0 0 692.85742,453.79102 319.28571,304.28571 0 0 0 373.57227,149.50586 Z m 0,22.94141 A 288.64404,280.13605 0 0 1 662.21484,452.58398 288.64404,280.13605 0 0 1 373.57227,732.71875 288.64404,280.13605 0 0 1 84.927734,452.58398 288.64404,280.13605 0 0 1 373.57227,172.44727 Z"
         id="path3385-2" />
      <g
         id="g4741"
         style="fill:#aa0000">
        <rect
           ry="0"
           inkscape:transform-center-y="19.999996"
           inkscape:transform-center-x="59.372755"
           transform="matrix(0.00930503,0.99995671,-0.99999337,0.00364175,0,0)"
           y="-337.25931"
           x="325.99066"
           height="72.594398"
           width="258.57822"
           id="rect3439-2-5"
           style="fill:#aa0000;fill-opacity:1" />
        <path
           inkscape:connector-curvature="0"
           d="m 339.95233,370.78001 c 94.01197,0.22487 95.47762,83.86773 95.47762,83.86773 0,0 2.51256,78.0235 -93.59318,78.4732 m -2.55801,-207.90426 c 160.14122,0.35749 162.63785,133.34601 162.63785,133.34601 0,0 4.27993,124.05402 -159.42789,124.76901"
           style="fill:#aa0000;fill-rule:evenodd;stroke:none;stroke-width:0.60298073px;stroke-linecap:butt;stroke-linejoin:miter;stroke-opacity:1"
           id="path4721-1" />
      </g>
    </g>
  </g>
</svg>
