<?xml version="1.0" encoding="UTF-8" standalone="no"?>
<svg
   xmlns:dc="http://purl.org/dc/elements/1.1/"
   xmlns:cc="http://creativecommons.org/ns#"
   xmlns:rdf="http://www.w3.org/1999/02/22-rdf-syntax-ns#"
   xmlns:svg="http://www.w3.org/2000/svg"
   xmlns="http://www.w3.org/2000/svg"
   xmlns:sodipodi="http://sodipodi.sourceforge.net/DTD/sodipodi-0.dtd"
   xmlns:inkscape="http://www.inkscape.org/namespaces/inkscape"
   height="18px"
   version="1.1"
   viewBox="0 0 18 18"
   width="18px"
   id="svg2"
   inkscape:version="0.91 r13725"
   sodipodi:docname="search.svg">
  <metadata
     id="metadata16">
    <rdf:RDF>
      <cc:Work
         rdf:about="">
        <dc:format>image/svg+xml</dc:format>
        <dc:type
           rdf:resource="http://purl.org/dc/dcmitype/StillImage" />
        <dc:title></dc:title>
      </cc:Work>
    </rdf:RDF>
  </metadata>
  <sodipodi:namedview
     pagecolor="#ffffff"
     bordercolor="#666666"
     borderopacity="1"
     objecttolerance="10"
     gridtolerance="10"
     guidetolerance="10"
     inkscape:pageopacity="0"
     inkscape:pageshadow="2"
     inkscape:window-width="1920"
     inkscape:window-height="1017"
     id="namedview14"
     showgrid="false"
     inkscape:zoom="13.111111"
     inkscape:cx="9"
     inkscape:cy="9"
     inkscape:window-x="-8"
     inkscape:window-y="-8"
     inkscape:window-maximized="1"
     inkscape:current-layer="svg2" />
  <desc
     id="desc6" />
  <defs
     id="defs8" />
  <g
     id="Page-1"
     style="fill:#f2f2f2;fill-rule:evenodd;stroke:none;stroke-width:1"
     transform="matrix(0.8,0,0,0.8,1.9067796,1.9745764)">
    <g
       id="Core"
       transform="translate(-339,-381)"
       style="fill:#f2f2f2">
      <g
         id="search"
         transform="translate(339,381)"
         style="fill:#f2f2f2">
        <path
           d="m 12.5,11 -0.8,0 -0.3,-0.3 C 12.4,9.6 13,8.1 13,6.5 13,2.9 10.1,0 6.5,0 2.9,0 0,2.9 0,6.5 0,10.1 2.9,13 6.5,13 c 1.6,0 3.1,-0.6 4.2,-1.6 l 0.3,0.3 0,0.8 5,5 1.5,-1.5 -5,-5 0,0 z m -6,0 C 4,11 2,9 2,6.5 2,4 4,2 6.5,2 9,2 11,4 11,6.5 11,9 9,11 6.5,11 l 0,0 z"
           id="Shape"
           style="fill:#f2f2f2"
           inkscape:connector-curvature="0" />
      </g>
    </g>
  </g>
</svg>
