<?xml version="1.0" encoding="UTF-8" standalone="no"?>
<svg
   xmlns:dc="http://purl.org/dc/elements/1.1/"
   xmlns:cc="http://creativecommons.org/ns#"
   xmlns:rdf="http://www.w3.org/1999/02/22-rdf-syntax-ns#"
   xmlns:svg="http://www.w3.org/2000/svg"
   xmlns="http://www.w3.org/2000/svg"
   xmlns:sodipodi="http://sodipodi.sourceforge.net/DTD/sodipodi-0.dtd"
   xmlns:inkscape="http://www.inkscape.org/namespaces/inkscape"
   height="18px"
   version="1.1"
   viewBox="0 0 18 18"
   width="18px"
   id="svg2"
   inkscape:version="0.91 r13725"
   sodipodi:docname="selectie.svg">
  <metadata
     id="metadata16">
    <rdf:RDF>
      <cc:Work
         rdf:about="">
        <dc:format>image/svg+xml</dc:format>
        <dc:type
           rdf:resource="http://purl.org/dc/dcmitype/StillImage" />
      </cc:Work>
    </rdf:RDF>
  </metadata>
  <sodipodi:namedview
     pagecolor="#ffffff"
     bordercolor="#666666"
     borderopacity="1"
     objecttolerance="10"
     gridtolerance="10"
     guidetolerance="10"
     inkscape:pageopacity="0"
     inkscape:pageshadow="2"
     inkscape:window-width="1920"
     inkscape:window-height="1017"
     id="namedview14"
     showgrid="false"
     inkscape:zoom="13.111111"
     inkscape:cx="9"
     inkscape:cy="9"
     inkscape:window-x="-8"
     inkscape:window-y="-8"
     inkscape:window-maximized="1"
     inkscape:current-layer="svg2" />
  <title
     id="title4" />
  <desc
     id="desc6" />
  <defs
     id="defs8" />
  <g
     id="Page-1"
     transform="matrix(0.80084746,0,0,0.84745762,1.6779661,1.3728814)"
     style="fill:#f2f2f2;fill-rule:evenodd;stroke:none;stroke-width:1">
    <g
       id="Core"
       transform="translate(-549,-45)"
       style="fill:#f2f2f2">
      <g
         id="check-box-outline"
         transform="translate(549,45)"
         style="fill:#f2f2f2">
        <path
           d="M 4.9,7.1 3.5,8.5 8,13 18,3 16.6,1.6 8,10.2 4.9,7.1 l 0,0 z M 16,16 2,16 2,2 12,2 12,0 2,0 C 0.9,0 0,0.9 0,2 l 0,14 c 0,1.1 0.9,2 2,2 l 14,0 c 1.1,0 2,-0.9 2,-2 l 0,-8 -2,0 0,8 0,0 z"
           id="Shape"
           inkscape:connector-curvature="0"
           style="fill:#f2f2f2" />
      </g>
    </g>
  </g>
</svg>
